<svg id="Layer_1" data-name="Layer 1" xmlns="http://www.w3.org/2000/svg" viewBox="0 0 1768 612"><defs><style>.cls-1,.cls-2{fill:#fff3ec;}.cls-2{fill-rule:evenodd;}</style></defs><path class="cls-1" d="M620.28,465.91q-34.28,0-34.28-33.5V359.76h41.8v95.6a5.36,5.36,0,0,0,2.44.49h3.22q7.81,0,18.56-10.55c2.14-2.14,9.09-9.76,11-12.3l1.5-73.24h35.56V464.05H663V442.5C652,455.85,634.86,465.91,620.28,465.91Z"/><path class="cls-1" d="M816.5,368.84c-4.33-2.77-18.14-1-23.37,1.37a33.43,33.43,0,0,0-6.35,3.61A55.7,55.7,0,0,0,774,387.1v76.95H732V359.76h42v16.7Q790.69,358,811.78,358q34.47,0,34.47,33.4v72.65H816.5Z"/><path class="cls-1" d="M1089.91,457.61a49.11,49.11,0,0,1-27.74,8.3q-20.2,0-32.42-10.16-12.69-10.44-12.7-29a33.58,33.58,0,0,1,12.6-26.95q12.9-10.65,33.89-10.65a65.25,65.25,0,0,1,26.37,5.37V367.67a58.3,58.3,0,0,0-15.73-2.54,94.3,94.3,0,0,0-11.42.58,62.72,62.72,0,0,0-8.89,1.76c-6,1.7-13.77,6.84-13.77,6.84l-7.22-5.86a59.51,59.51,0,0,1,9.76-5.08,79.62,79.62,0,0,1,28.42-5.37c28.9,0,42.93,5.05,50.94,18.85,3.52,6.12,4.43,15.33,4.43,25.29v61.91h-36.52Zm0-55.47c-7.91-4.64-16.38-6-24.52-6a22.12,22.12,0,0,0-3.71.3v62.11a6,6,0,0,0,1.08.09h1.17q13.38,0,26-9.47C1102.5,435.5,1101.5,411,1089.91,402.14Z"/><path class="cls-1" d="M1162.27,359.76h42v30.66q6.73-16.69,14.45-24.51t15.63-7.91a9.82,9.82,0,0,1,6.93,2.34,6.58,6.58,0,0,1,2.64,5.08,10.68,10.68,0,0,1-.78,4.49,9.24,9.24,0,0,1-2.05,2.84c-1.76,1.62-3.42,2.44-5,2.44a14.28,14.28,0,0,1-5.47-.78,13.2,13.2,0,0,0-5.37-1.37q-2.34,0-6,3.81a41,41,0,0,0-6.93,10.35,77.45,77.45,0,0,0-8.11,35.16v41.69h-42Z"/><path class="cls-1" d="M1248.13,452.55l4.57-5.49s11.43,11.49,33.59,12.11q12.32,0,15.82-5.08a4.68,4.68,0,0,0,1-2.73,6.48,6.48,0,0,0-.59-2.74,10,10,0,0,0-2.24-3.22,46.36,46.36,0,0,0-5-4.59l-8.6-6.93q-21.29-16.61-29.2-26.95-7.21-9.48-7.22-19.34,0-12.4,11.42-20.8,11.82-8.79,30.57-8.79a57.14,57.14,0,0,1,20.88,3.55c5.08,2,10.66,5,10.66,5l-3.61,6.45a43.53,43.53,0,0,0-15-6.93,50.77,50.77,0,0,0-12-1.57q-5.57,0-7.91,1.76c-1.5,1.17-2.25,2.34-2.25,3.52a7.9,7.9,0,0,0,.69,3.22,14.81,14.81,0,0,0,2.54,3.51q4.29,5.08,13.76,12t16,12.69a75.5,75.5,0,0,1,10.25,10.65q6.75,8.79,6.74,17.77a33.25,33.25,0,0,1-3.32,15.43,32.2,32.2,0,0,1-9.47,10.94q-13,9.85-34.67,9.86a54,54,0,0,1-28-7.36A97.94,97.94,0,0,1,1248.13,452.55Z"/><path class="cls-1" d="M1349,451l6.44-2.93c8.7,8,19.08,11.13,30.86,11.13q12.32,0,15.82-5.08a4.68,4.68,0,0,0,1-2.73,6.48,6.48,0,0,0-.59-2.74,10,10,0,0,0-2.24-3.22,46.36,46.36,0,0,0-5-4.59l-8.6-6.93q-21.29-16.61-29.2-26.95-7.21-9.48-7.22-19.34,0-12.4,11.42-20.8,11.82-8.79,30.57-8.79a54.23,54.23,0,0,1,20.38,3.55c5.08,2,11.16,5,11.16,5l-3.16,6.64s-9.57-5.69-15.49-7.12a50.77,50.77,0,0,0-12-1.57q-5.57,0-7.91,1.76c-1.5,1.17-2.25,2.34-2.25,3.52a7.9,7.9,0,0,0,.69,3.22,14.81,14.81,0,0,0,2.54,3.51q4.29,5.08,13.76,12t16,12.69a75.5,75.5,0,0,1,10.25,10.65q6.75,8.79,6.74,17.77a33.25,33.25,0,0,1-3.32,15.43,32.2,32.2,0,0,1-9.47,10.94q-13,9.85-34.67,9.86C1373.32,465.91,1357.13,462.55,1349,451Z"/><path class="cls-1" d="M1447.62,411.32a51.27,51.27,0,0,1,15.92-38.09q16-15.23,40.23-15.23,24.7,0,40.24,15.82,14.84,14.94,14.84,37.79T1543.62,450q-15.72,15.92-40.24,15.92-23.93,0-39.65-15.14Q1447.62,435.16,1447.62,411.32Zm53,47.27a13.6,13.6,0,0,0,1.56.09h1.37q19.73,0,33.1-12.2,14.27-13.19,14.26-34.57,0-20.91-13.38-33.89-13.18-12.88-34.08-12.89H1502a8.93,8.93,0,0,0-1.37.1Z"/><path class="cls-1" d="M956.25,368.84c-4.34-2.77-18.14-1-23.37,1.37a33.43,33.43,0,0,0-6.35,3.61,55.73,55.73,0,0,0-12.8,13.28v76.95h-42V359.76h42v16.7Q930.44,358,951.53,358,986,358,986,391.4v72.65H956.25Z"/><path class="cls-1" d="M1664.5,370.6c-4.33-2.77-18.14-1-23.37,1.36a34,34,0,0,0-6.34,3.62,55.54,55.54,0,0,0-12.8,13.28v76.95h-42V361.52h42v16.69q16.69-18.45,37.8-18.45,34.47,0,34.47,33.4v72.65H1664.5Z"/><path class="cls-1" d="M304,611.13c102.14,0,183-46.5,233.25-111.5v105.5l31.74-55c0-35.38-.3-34.88,0-72.4.31-38.18.63-76.69.63-114V309.82c0-40.28-.12-104.74-.12-104.74H537.25s.14,64.46,0,104.74c-.14,38.47,0,113.31,0,113.31-38.57,98.77-162,165.1-263.58,155.87V366.13L304,313V206.69h40.71V195.63H304v-37h56.14V147c-20.64,0-65.5.06-86.14,0l-.33-112C360.14,21.63,436.46,49.58,493,110.63l23-25C468.5,30.63,380.48,1.47,328.32.13,134-4.87,0,132.63,0,312.9c0,90.52,43.62,163.73,90.5,209.23C128,558.53,201.86,611.13,304,611.13Z"/><path class="cls-2" d="M446.71,295.13a27.19,27.19,0,0,1-5.5,5.5c-13,10-20.88,12.36-38.78,12.36q-24.12,0-40.63-14.55-17.08-15.13-17.09-38.29,0-23.62,15.43-38.86,16.31-16.22,43.36-16.21,21.67,0,36.43,13.18,15.92,14.16,15.91,37.21,0,3.32-.19,7H391.2v41.89a74.39,74.39,0,0,0,14.94,1.37,48.57,48.57,0,0,0,19.57-4.13,75.67,75.67,0,0,0,16.5-11Zm-27.5-81a63.4,63.4,0,0,0-15.32-1.92,59,59,0,0,0-12.69,1.07v42.09h27.05l31.46.1C448.71,230.13,434.71,218.26,419.21,214.13Z"/><path class="cls-1" d="M480.65,147V311.13H512.5v-108Z"/><path class="cls-1" d="M618,264.13c-4.66,5.71-35.5,47-35.5,47H591s22.5-29.93,30.5-40l32.5,56.5h45.5L651,244.13c9.4-11.95,19.5-26.5,29-39l-9,.14c-9,11.86-15.5,20.86-24,31.86l-18.5-32-45.63.14Z"/><path class="cls-1" d="M578,157a25,25,0,1,1-25-25A25,25,0,0,1,578,157Z"/><path class="cls-1" d="M1768,441a25,25,0,1,1-25-25A25,25,0,0,1,1768,441Z"/></svg>