<svg width="2000" height="2000" viewBox="0 0 2000 2000" fill="none" xmlns="http://www.w3.org/2000/svg">
<rect width="2000" height="2000" fill="#846ACD"/>
<path d="M1505 1185.18H1651.13V1772H1363.49V1476L1505 1185.18Z" fill="#EC6AA0"/>
<path d="M1363.49 232.81H1651.13V684.947V873L1505 1137.08H1363.49V232.81Z" fill="#EC6AA0"/>
<path d="M537.142 470.158C524.936 480.464 511.327 488.406 496.314 493.984C481.301 499.44 465.677 502.168 449.444 502.168C436.994 502.168 424.971 500.531 413.375 497.258C401.902 494.105 391.161 489.619 381.152 483.799C371.144 477.857 361.989 470.825 353.689 462.701C345.389 454.456 338.31 445.362 332.451 435.42C326.592 425.356 322.015 414.565 318.72 403.046C315.546 391.527 313.959 379.584 313.959 367.216C313.959 354.849 315.546 342.966 318.72 331.569C322.015 320.171 326.592 309.501 332.451 299.558C338.31 289.495 345.389 280.401 353.689 272.277C361.989 264.032 371.144 256.999 381.152 251.179C391.161 245.359 401.902 240.873 413.375 237.721C424.971 234.447 436.994 232.81 449.444 232.81C465.677 232.81 481.301 235.599 496.314 241.176C511.327 246.633 524.936 254.514 537.142 264.82L509.679 310.289C501.745 302.287 492.591 296.042 482.216 291.556C471.841 286.948 460.917 284.645 449.444 284.645C437.97 284.645 427.168 286.827 417.037 291.192C407.028 295.557 398.24 301.498 390.673 309.016C383.105 316.412 377.124 325.142 372.73 335.206C368.336 345.149 366.139 355.819 366.139 367.216C366.139 378.735 368.336 389.526 372.73 399.59C377.124 409.654 383.105 418.445 390.673 425.962C398.24 433.48 407.028 439.421 417.037 443.786C427.168 448.151 437.97 450.334 449.444 450.334C456.035 450.334 462.443 449.545 468.668 447.969C474.893 446.393 480.812 444.21 486.427 441.422V367.216H537.142V470.158Z" fill="white"/>
<path d="M846.904 362.588C846.904 374.939 845.269 386.866 842 398.37C838.852 409.752 834.372 420.468 828.559 430.518C822.747 440.447 815.724 449.529 807.49 457.763C799.256 465.997 790.175 473.08 780.246 479.014C770.316 484.826 759.6 489.306 748.097 492.454C736.594 495.724 724.667 497.358 712.316 497.358C699.965 497.358 688.038 495.724 676.534 492.454C665.152 489.306 654.436 484.826 644.386 479.014C634.457 473.08 625.375 465.997 617.141 457.763C608.907 449.529 601.824 440.447 595.89 430.518C590.078 420.468 585.538 409.752 582.268 398.37C579.12 386.866 577.546 374.939 577.546 362.588C577.546 350.237 579.12 338.31 582.268 326.807C585.538 315.304 590.078 304.588 595.89 294.658C601.824 284.729 608.907 275.648 617.141 267.414C625.375 259.18 634.457 252.157 644.386 246.345C654.436 240.533 665.152 236.052 676.534 232.904C688.038 229.635 699.965 228 712.316 228C724.667 228 736.594 229.635 748.097 232.904C759.6 236.052 770.316 240.533 780.246 246.345C790.175 252.157 799.256 259.18 807.49 267.414C815.724 275.648 822.747 284.729 828.559 294.658C834.372 304.588 838.852 315.304 842 326.807C845.269 338.31 846.904 350.237 846.904 362.588ZM795.139 362.588C795.139 351.206 792.96 340.49 788.601 330.44C784.241 320.268 778.308 311.49 770.801 304.103C763.414 296.596 754.636 290.663 744.464 286.303C734.414 281.944 723.698 279.765 712.316 279.765C700.812 279.765 690.036 281.944 679.985 286.303C669.935 290.663 661.156 296.596 653.649 304.103C646.142 311.49 640.208 320.268 635.849 330.44C631.49 340.49 629.311 351.206 629.311 362.588C629.311 373.971 631.49 384.687 635.849 394.737C640.208 404.666 646.142 413.384 653.649 420.892C661.156 428.399 669.935 434.332 679.985 438.692C690.036 443.051 700.812 445.23 712.316 445.23C723.698 445.23 734.414 443.051 744.464 438.692C754.636 434.332 763.414 428.399 770.801 420.892C778.308 413.384 784.241 404.666 788.601 394.737C792.96 384.687 795.139 373.971 795.139 362.588Z" fill="#EC6AA0"/>
<path d="M371.703 819.626H317.972V604.177H237V550.268H605.444V604.177H371.703V819.626Z" fill="#EC6AA0"/>
<path d="M658.4 819.626H604.482V550.268H658.4V658.086H766.05V550.268H819.968V819.626H766.05V711.996H658.4V819.626Z" fill="white"/>
<path d="M533.294 1137.08H317.807V867.726H533.294V921.635H380.722V975.544H483.971V1029.45H380.722V1083.17H533.294V1137.08Z" fill="white"/>
<path d="M1759.84 819.626H1544.35V550.268H1759.84V604.177H1607.26V658.086H1710.51V711.996H1607.26V765.717H1759.84V819.626Z" fill="white"/>
<path d="M819.968 1137.08H762.292L658.4 959.766V1137.08H604.482V867.726H662.158L766.05 1045.23V867.726H819.968V1137.08Z" fill="#EC6AA0"/>
<path d="M533.294 1373.77C533.294 1384.92 531.165 1395.37 526.907 1405.14C522.648 1414.91 516.824 1423.49 509.435 1430.87C502.17 1438.14 493.654 1443.9 483.884 1448.16C474.115 1452.41 463.657 1454.54 452.51 1454.54H317.807V1185.18H452.51C463.657 1185.18 474.115 1187.31 483.884 1191.57C493.654 1195.83 502.17 1201.65 509.435 1209.04C516.824 1216.3 522.648 1224.82 526.907 1234.58C531.165 1244.35 533.294 1254.81 533.294 1265.95C533.294 1270.96 532.605 1276.1 531.228 1281.36C529.85 1286.62 527.909 1291.69 525.404 1296.57C522.899 1301.45 519.893 1305.9 516.386 1309.91C512.879 1313.91 508.996 1317.23 504.738 1319.86C509.122 1322.24 513.067 1325.5 516.574 1329.63C520.081 1333.64 523.087 1338.08 525.591 1342.97C528.096 1347.85 529.975 1352.98 531.228 1358.37C532.605 1363.63 533.294 1368.76 533.294 1373.77ZM371.726 1400.63H452.51C456.268 1400.63 459.774 1399.94 463.031 1398.57C466.287 1397.19 469.105 1395.31 471.485 1392.93C473.99 1390.43 475.931 1387.55 477.309 1384.29C478.687 1381.04 479.375 1377.53 479.375 1373.77C479.375 1370.02 478.687 1366.51 477.309 1363.25C475.931 1360 473.99 1357.18 471.485 1354.8C469.105 1352.3 466.287 1350.36 463.031 1348.98C459.774 1347.6 456.268 1346.91 452.51 1346.91H371.726V1400.63ZM371.726 1293H452.51C456.268 1293 459.774 1292.31 463.031 1290.94C466.287 1289.56 469.105 1287.68 471.485 1285.3C473.99 1282.8 475.931 1279.92 477.309 1276.66C478.687 1273.28 479.375 1269.71 479.375 1265.95C479.375 1262.2 478.687 1258.69 477.309 1255.43C475.931 1252.18 473.99 1249.36 471.485 1246.98C469.105 1244.48 466.287 1242.54 463.031 1241.16C459.774 1239.78 456.268 1239.09 452.51 1239.09H371.726V1293Z" fill="#EC6AA0"/>
<path d="M1759.84 1373.77C1759.84 1384.92 1757.71 1395.37 1753.45 1405.14C1749.19 1414.91 1743.37 1423.49 1735.98 1430.87C1728.71 1438.14 1720.2 1443.9 1710.43 1448.16C1700.66 1452.41 1690.2 1454.54 1679.05 1454.54H1544.35V1185.18H1679.05C1690.2 1185.18 1700.66 1187.31 1710.43 1191.57C1720.2 1195.83 1728.71 1201.65 1735.98 1209.04C1743.37 1216.3 1749.19 1224.82 1753.45 1234.58C1757.71 1244.35 1759.84 1254.81 1759.84 1265.95C1759.84 1270.96 1759.15 1276.1 1757.77 1281.36C1756.39 1286.62 1754.45 1291.69 1751.95 1296.57C1749.44 1301.45 1746.43 1305.9 1742.93 1309.91C1739.42 1313.91 1735.54 1317.23 1731.28 1319.86C1735.66 1322.24 1739.61 1325.5 1743.12 1329.63C1746.62 1333.64 1749.63 1338.08 1752.13 1342.97C1754.64 1347.85 1756.52 1352.98 1757.77 1358.37C1759.15 1363.63 1759.84 1368.76 1759.84 1373.77ZM1598.27 1400.63H1679.05C1682.81 1400.63 1686.32 1399.94 1689.57 1398.57C1692.83 1397.19 1695.65 1395.31 1698.03 1392.93C1700.53 1390.43 1702.47 1387.55 1703.85 1384.29C1705.23 1381.04 1705.92 1377.53 1705.92 1373.77C1705.92 1370.02 1705.23 1366.51 1703.85 1363.25C1702.47 1360 1700.53 1357.18 1698.03 1354.8C1695.65 1352.3 1692.83 1350.36 1689.57 1348.98C1686.32 1347.6 1682.81 1346.91 1679.05 1346.91H1598.27V1400.63ZM1598.27 1293H1679.05C1682.81 1293 1686.32 1292.31 1689.57 1290.94C1692.83 1289.56 1695.65 1287.68 1698.03 1285.3C1700.53 1282.8 1702.47 1279.92 1703.85 1276.66C1705.23 1273.28 1705.92 1269.71 1705.92 1265.95C1705.92 1262.2 1705.23 1258.69 1703.85 1255.43C1702.47 1252.18 1700.53 1249.36 1698.03 1246.98C1695.65 1244.48 1692.83 1242.54 1689.57 1241.16C1686.32 1239.78 1682.81 1239.09 1679.05 1239.09H1598.27V1293Z" fill="white"/>
<path d="M819.968 1346.91C819.968 1361.81 817.15 1375.84 811.514 1388.99C805.878 1402.01 798.175 1413.41 788.406 1423.17C778.637 1432.82 767.177 1440.45 754.026 1446.09C741 1451.72 727.035 1454.54 712.131 1454.54C697.227 1454.54 683.199 1451.72 670.048 1446.09C657.023 1440.45 645.625 1432.82 635.856 1423.17C626.212 1413.41 618.572 1402.01 612.936 1388.99C607.3 1375.84 604.482 1361.81 604.482 1346.91V1185.18H658.212V1346.91C658.212 1354.3 659.59 1361.25 662.346 1367.76C665.226 1374.27 669.109 1379.97 673.993 1384.85C678.878 1389.74 684.577 1393.62 691.09 1396.5C697.728 1399.26 704.741 1400.63 712.131 1400.63C719.521 1400.63 726.472 1399.26 732.985 1396.5C739.623 1393.62 745.384 1389.74 750.269 1384.85C755.153 1379.97 758.973 1374.27 761.729 1367.76C764.609 1361.25 766.05 1354.3 766.05 1346.91V1185.18H819.968V1346.91Z" fill="white"/>
<path d="M371.726 1556.55V1664.37H425.645C433.034 1664.37 439.985 1662.99 446.498 1660.24C453.011 1657.36 458.71 1653.47 463.594 1648.59C468.479 1643.71 472.299 1638.01 475.054 1631.5C477.935 1624.86 479.375 1617.85 479.375 1610.46C479.375 1603.07 477.935 1596.12 475.054 1589.61C472.299 1582.97 468.479 1577.21 463.594 1572.33C458.71 1567.45 453.011 1563.63 446.498 1560.87C439.985 1557.99 433.034 1556.55 425.645 1556.55H371.726ZM371.726 1772H317.807V1502.64H425.645C435.539 1502.64 445.058 1503.96 454.201 1506.59C463.344 1509.09 471.861 1512.72 479.751 1517.48C487.767 1522.11 495.031 1527.75 501.544 1534.39C508.182 1540.9 513.818 1548.16 518.452 1556.18C523.212 1564.19 526.844 1572.77 529.349 1581.91C531.979 1591.05 533.294 1600.57 533.294 1610.46C533.294 1619.73 532.104 1628.74 529.725 1637.51C527.47 1646.27 524.151 1654.6 519.767 1662.49C515.509 1670.38 510.249 1677.64 503.986 1684.28C497.724 1690.92 490.71 1696.68 482.945 1701.56L512.816 1772H455.516L432.032 1717.72L371.726 1718.09V1772Z" fill="white"/>
<path d="M823.816 1739.99C811.61 1750.3 798.001 1758.24 782.988 1763.82C767.975 1769.27 752.351 1772 736.118 1772C723.668 1772 711.645 1770.36 700.05 1767.09C688.576 1763.94 677.835 1759.45 667.826 1753.63C657.818 1747.69 648.663 1740.66 640.363 1732.53C632.063 1724.29 624.984 1715.19 619.125 1705.25C613.267 1695.19 608.689 1684.4 605.394 1672.88C602.22 1661.36 600.634 1649.42 600.634 1637.05C600.634 1624.68 602.22 1612.8 605.394 1601.4C608.689 1590 613.267 1579.33 619.125 1569.39C624.984 1559.33 632.063 1550.23 640.363 1542.11C648.663 1533.86 657.818 1526.83 667.826 1521.01C677.835 1515.19 688.576 1510.7 700.05 1507.55C711.645 1504.28 723.668 1502.64 736.118 1502.64C752.351 1502.64 767.975 1505.43 782.988 1511.01C798.001 1516.46 811.61 1524.35 823.816 1534.65L796.353 1580.12C788.419 1572.12 779.265 1565.87 768.89 1561.39C758.515 1556.78 747.591 1554.48 736.118 1554.48C724.644 1554.48 713.842 1556.66 703.711 1561.02C693.703 1565.39 684.914 1571.33 677.347 1578.85C669.779 1586.24 663.798 1594.97 659.404 1605.04C655.01 1614.98 652.813 1625.65 652.813 1637.05C652.813 1648.57 655.01 1659.36 659.404 1669.42C663.798 1679.49 669.779 1688.28 677.347 1695.79C684.914 1703.31 693.703 1709.25 703.711 1713.62C713.842 1717.98 724.644 1720.17 736.118 1720.17C742.709 1720.17 749.117 1719.38 755.342 1717.8C761.567 1716.22 767.487 1714.04 773.101 1711.25V1637.05H823.816V1739.99Z" fill="#EC6AA0"/>
<path d="M1763.68 1739.99C1751.48 1750.3 1737.87 1758.24 1722.86 1763.82C1707.84 1769.27 1692.22 1772 1675.99 1772C1663.54 1772 1651.51 1770.36 1639.92 1767.09C1628.44 1763.94 1617.7 1759.45 1607.69 1753.63C1597.69 1747.69 1588.53 1740.66 1580.23 1732.53C1571.93 1724.29 1564.85 1715.19 1558.99 1705.25C1553.13 1695.19 1548.56 1684.4 1545.26 1672.88C1542.09 1661.36 1540.5 1649.42 1540.5 1637.05C1540.5 1624.68 1542.09 1612.8 1545.26 1601.4C1548.56 1590 1553.13 1579.33 1558.99 1569.39C1564.85 1559.33 1571.93 1550.23 1580.23 1542.11C1588.53 1533.86 1597.69 1526.83 1607.69 1521.01C1617.7 1515.19 1628.44 1510.7 1639.92 1507.55C1651.51 1504.28 1663.54 1502.64 1675.99 1502.64C1692.22 1502.64 1707.84 1505.43 1722.86 1511.01C1737.87 1516.46 1751.48 1524.35 1763.68 1534.65L1736.22 1580.12C1728.29 1572.12 1719.13 1565.87 1708.76 1561.39C1698.38 1556.78 1687.46 1554.48 1675.99 1554.48C1664.51 1554.48 1653.71 1556.66 1643.58 1561.02C1633.57 1565.39 1624.78 1571.33 1617.21 1578.85C1609.65 1586.24 1603.67 1594.97 1599.27 1605.04C1594.88 1614.98 1592.68 1625.65 1592.68 1637.05C1592.68 1648.57 1594.88 1659.36 1599.27 1669.42C1603.67 1679.49 1609.65 1688.28 1617.21 1695.79C1624.78 1703.31 1633.57 1709.25 1643.58 1713.62C1653.71 1717.98 1664.51 1720.17 1675.99 1720.17C1682.58 1720.17 1688.98 1719.38 1695.21 1717.8C1701.43 1716.22 1707.35 1714.04 1712.97 1711.25V1637.05H1763.68V1739.99Z" fill="white"/>
<path d="M1311.59 286.719V394.538H1365.51C1372.9 394.538 1379.85 393.16 1386.37 390.405C1392.88 387.525 1398.58 383.643 1403.46 378.759C1408.35 373.876 1412.17 368.178 1414.92 361.666C1417.8 355.029 1419.24 348.017 1419.24 340.628C1419.24 333.24 1417.8 326.29 1414.92 319.778C1412.17 313.142 1408.35 307.381 1403.46 302.497C1398.58 297.614 1392.88 293.794 1386.37 291.039C1379.85 288.159 1372.9 286.719 1365.51 286.719H1311.59ZM1311.59 502.168H1257.68V232.81H1365.51C1375.41 232.81 1384.93 234.125 1394.07 236.755C1403.21 239.259 1411.73 242.891 1419.62 247.649C1427.63 252.282 1434.9 257.918 1441.41 264.554C1448.05 271.066 1453.69 278.329 1458.32 286.344C1463.08 294.358 1466.71 302.936 1469.22 312.077C1471.85 321.219 1473.16 330.736 1473.16 340.628C1473.16 355.405 1470.34 369.367 1464.71 382.516C1459.07 395.539 1451.37 406.935 1441.6 416.702C1431.83 426.47 1420.37 434.171 1407.22 439.806C1394.19 445.441 1380.29 448.259 1365.51 448.259H1311.59V502.168Z" fill="white"/>
<path d="M1311.59 604.177V711.996H1365.51C1372.9 711.996 1379.85 710.618 1386.37 707.863C1392.88 704.983 1398.58 701.101 1403.46 696.217C1408.35 691.333 1412.17 685.636 1414.92 679.124C1417.8 672.487 1419.24 665.475 1419.24 658.086C1419.24 650.698 1417.8 643.748 1414.92 637.236C1412.17 630.6 1408.35 624.839 1403.46 619.955C1398.58 615.072 1392.88 611.252 1386.37 608.497C1379.85 605.617 1372.9 604.177 1365.51 604.177H1311.59ZM1311.59 819.626H1257.68V550.268H1365.51C1375.41 550.268 1384.93 551.583 1394.07 554.212C1403.21 556.717 1411.73 560.348 1419.62 565.107C1427.63 569.74 1434.9 575.375 1441.41 582.012C1448.05 588.524 1453.69 595.787 1458.32 603.801C1463.08 611.816 1466.71 620.394 1469.22 629.535C1471.85 638.676 1473.16 648.194 1473.16 658.086C1473.16 672.863 1470.34 686.825 1464.71 699.974C1459.07 712.997 1451.37 724.393 1441.6 734.16C1431.83 743.928 1420.37 751.629 1407.22 757.264C1394.19 762.899 1380.29 765.717 1365.51 765.717H1311.59V819.626Z" fill="white"/>
<path d="M1705.92 394.538V340.628C1705.92 333.24 1704.48 326.29 1701.6 319.778C1698.84 313.142 1695.02 307.381 1690.14 302.497C1685.25 297.614 1679.49 293.794 1672.85 291.039C1666.34 288.159 1659.39 286.719 1652 286.719C1644.61 286.719 1637.6 288.159 1630.96 291.039C1624.44 293.794 1618.75 297.614 1613.86 302.497C1608.98 307.381 1605.09 313.142 1602.21 319.778C1599.46 326.29 1598.08 333.24 1598.08 340.628V394.538H1705.92ZM1759.84 502.168H1705.92V448.259H1598.08V502.168H1544.35V340.628C1544.35 325.727 1547.17 311.764 1552.8 298.741C1558.44 285.592 1566.08 274.134 1575.72 264.367C1585.49 254.599 1596.89 246.898 1609.92 241.263C1623.07 235.628 1637.09 232.81 1652 232.81C1666.9 232.81 1680.87 235.628 1693.89 241.263C1707.04 246.898 1718.5 254.599 1728.27 264.367C1738.04 274.134 1745.75 285.592 1751.38 298.741C1757.02 311.764 1759.84 325.727 1759.84 340.628V502.168Z" fill="white"/>
<path d="M1419.24 1664.37V1610.46C1419.24 1603.07 1417.8 1596.12 1414.92 1589.61C1412.17 1582.97 1408.35 1577.21 1403.46 1572.33C1398.58 1567.45 1392.82 1563.63 1386.18 1560.87C1379.67 1557.99 1372.71 1556.55 1365.32 1556.55C1357.94 1556.55 1350.92 1557.99 1344.28 1560.87C1337.77 1563.63 1332.07 1567.45 1327.19 1572.33C1322.3 1577.21 1318.42 1582.97 1315.54 1589.61C1312.78 1596.12 1311.41 1603.07 1311.41 1610.46V1664.37H1419.24ZM1473.16 1772H1419.24V1718.09H1311.41V1772H1257.68V1610.46C1257.68 1595.56 1260.49 1581.6 1266.13 1568.57C1271.77 1555.42 1279.41 1543.97 1289.05 1534.2C1298.82 1524.43 1310.22 1516.73 1323.24 1511.09C1336.39 1505.46 1350.42 1502.64 1365.32 1502.64C1380.23 1502.64 1394.19 1505.46 1407.22 1511.09C1420.37 1516.73 1431.83 1524.43 1441.6 1534.2C1451.37 1543.97 1459.07 1555.42 1464.71 1568.57C1470.34 1581.6 1473.16 1595.56 1473.16 1610.46V1772Z" fill="white"/>
<path d="M1311.59 921.635V1029.45H1365.51C1372.9 1029.45 1379.85 1028.08 1386.37 1025.32C1392.88 1022.44 1398.58 1018.56 1403.46 1013.68C1408.35 1008.79 1412.17 1003.09 1414.92 996.582C1417.8 989.945 1419.24 982.933 1419.24 975.544C1419.24 968.156 1417.8 961.206 1414.92 954.694C1412.17 948.057 1408.35 942.297 1403.46 937.413C1398.58 932.53 1392.88 928.71 1386.37 925.955C1379.85 923.075 1372.9 921.635 1365.51 921.635H1311.59ZM1311.59 1137.08H1257.68V867.726H1365.51C1375.41 867.726 1384.93 869.041 1394.07 871.67C1403.21 874.175 1411.73 877.806 1419.62 882.565C1427.63 887.198 1434.9 892.833 1441.41 899.47C1448.05 905.982 1453.69 913.245 1458.32 921.259C1463.08 929.274 1466.71 937.852 1469.22 946.993C1471.85 956.134 1473.16 965.652 1473.16 975.544C1473.16 984.811 1471.97 993.827 1469.59 1002.59C1467.34 1011.36 1464.02 1019.69 1459.64 1027.58C1455.38 1035.46 1450.12 1042.73 1443.85 1049.36C1437.59 1056 1430.58 1061.76 1422.81 1066.65L1452.68 1137.08H1395.38L1371.9 1082.8L1311.59 1083.17V1137.08Z" fill="white"/>
</svg>
