<svg width="2000" height="2000" viewBox="0 0 2000 2000" fill="none" xmlns="http://www.w3.org/2000/svg">
<rect width="2000" height="2000" fill="#E3E755"/>
<path d="M835 1544H611V1254H835V1312.04H676.4V1370.08H783.728V1428.12H676.4V1485.96H835V1544Z" fill="white"/>
<path d="M667.049 1723.04V1839.12H723.098C730.779 1839.12 738.005 1837.64 744.775 1834.67C751.545 1831.57 757.469 1827.39 762.547 1822.13C767.624 1816.88 771.595 1810.74 774.459 1803.73C777.454 1796.59 778.951 1789.04 778.951 1781.08C778.951 1773.13 777.454 1765.64 774.459 1758.63C771.595 1751.49 767.624 1745.29 762.547 1740.03C757.469 1734.77 751.545 1730.66 744.775 1727.69C738.005 1724.59 730.779 1723.04 723.098 1723.04H667.049ZM667.049 1955H611V1665H723.098C733.383 1665 743.278 1666.42 752.782 1669.25C762.286 1671.94 771.139 1675.85 779.342 1680.98C787.674 1685.96 795.226 1692.03 801.996 1699.18C808.896 1706.19 814.755 1714.01 819.572 1722.64C824.519 1731.26 828.295 1740.5 830.899 1750.34C833.633 1760.18 835 1770.43 835 1781.08C835 1791.06 833.763 1800.76 831.289 1810.2C828.946 1819.64 825.496 1828.61 820.939 1837.1C816.512 1845.59 811.044 1853.41 804.534 1860.56C798.025 1867.7 790.734 1873.91 782.662 1879.16L813.713 1955H754.149L729.738 1896.56L667.049 1896.96V1955Z" fill="white"/>
<path d="M667.049 913.04V1029.12H723.098C730.779 1029.12 738.005 1027.64 744.775 1024.67C751.545 1021.57 757.469 1017.39 762.547 1012.13C767.624 1006.88 771.595 1000.74 774.459 993.731C777.454 986.585 778.951 979.035 778.951 971.081C778.951 963.126 777.454 955.644 774.459 948.633C771.595 941.488 767.624 935.286 762.547 930.028C757.469 924.77 751.545 920.658 744.775 917.692C738.005 914.591 730.779 913.04 723.098 913.04H667.049ZM667.049 1145H611V855H723.098C733.383 855 743.278 856.416 752.782 859.247C762.286 861.943 771.139 865.853 779.342 870.976C787.674 875.965 795.226 882.032 801.996 889.177C808.896 896.188 814.755 904.007 819.572 912.636C824.519 921.265 828.295 930.5 830.899 940.342C833.633 950.184 835 960.43 835 971.081C835 986.99 832.071 1002.02 826.212 1016.18C820.353 1030.2 812.346 1042.47 802.191 1052.98C792.036 1063.5 780.123 1071.79 766.452 1077.86C752.912 1083.93 738.461 1086.96 723.098 1086.96H667.049V1145Z" fill="white"/>
<path d="M667.049 103.04V219.121H723.098C730.779 219.121 738.005 217.638 744.775 214.672C751.545 211.571 757.469 207.392 762.547 202.134C767.624 196.876 771.595 190.742 774.459 183.731C777.454 176.585 778.951 169.035 778.951 161.081C778.951 153.126 777.454 145.644 774.459 138.633C771.595 131.488 767.624 125.286 762.547 120.028C757.469 114.77 751.545 110.658 744.775 107.692C738.005 104.591 730.779 103.04 723.098 103.04H667.049ZM667.049 335H611V45H723.098C733.383 45 743.278 46.4156 752.782 49.2469C762.286 51.9433 771.139 55.8531 779.342 60.9763C787.674 65.9647 795.226 72.0316 801.996 79.1771C808.896 86.1878 814.755 94.0074 819.572 102.636C824.519 111.265 828.295 120.5 830.899 130.342C833.633 140.184 835 150.43 835 161.081C835 176.99 832.071 192.022 826.212 206.179C820.353 220.2 812.346 232.469 802.191 242.985C792.036 253.501 780.123 261.792 766.452 267.859C752.912 273.926 738.461 276.96 723.098 276.96H667.049V335Z" fill="white"/>
<path d="M778.951 630.121V572.081C778.951 564.126 777.454 556.644 774.459 549.633C771.595 542.488 767.624 536.286 762.547 531.028C757.469 525.77 751.48 521.658 744.58 518.692C737.81 515.591 730.584 514.04 722.902 514.04C715.221 514.04 707.93 515.591 701.03 518.692C694.26 521.658 688.336 525.77 683.258 531.028C678.18 536.286 674.144 542.488 671.15 549.633C668.286 556.644 666.854 564.126 666.854 572.081V630.121H778.951ZM835 746H778.951V687.96H666.854V746H611V572.081C611 556.037 613.929 541.005 619.788 526.983C625.647 512.827 633.589 500.491 643.614 489.975C653.769 479.459 665.617 471.167 679.157 465.1C692.827 459.033 707.409 456 722.902 456C738.396 456 752.912 459.033 766.452 465.1C780.123 471.167 792.036 479.459 802.191 489.975C812.346 500.491 820.353 512.827 826.212 526.983C832.071 541.005 835 556.037 835 572.081V746Z" fill="white"/>
<path d="M1117 248.04C1117 260.04 1114.79 271.297 1110.36 281.813C1105.93 292.329 1099.88 301.564 1092.2 309.519C1084.65 317.338 1075.79 323.54 1065.64 328.124C1055.48 332.708 1044.61 335 1033.02 335H893V45H1033.02C1044.61 45 1055.48 47.292 1065.64 51.8759C1075.79 56.4598 1084.65 62.729 1092.2 70.6834C1099.88 78.503 1105.93 87.6709 1110.36 98.1869C1114.79 108.703 1117 119.96 1117 131.96C1117 137.352 1116.28 142.88 1114.85 148.543C1113.42 154.205 1111.4 159.665 1108.8 164.923C1106.19 170.181 1103.07 174.967 1099.42 179.282C1095.78 183.596 1091.74 187.169 1087.32 190C1091.87 192.562 1095.97 196.067 1099.62 200.516C1103.26 204.83 1106.39 209.616 1108.99 214.874C1111.6 220.133 1113.55 225.66 1114.85 231.457C1116.28 237.12 1117 242.648 1117 248.04ZM949.049 276.96H1033.02C1036.93 276.96 1040.58 276.218 1043.96 274.735C1047.35 273.252 1050.28 271.23 1052.75 268.668C1055.35 265.972 1057.37 262.871 1058.8 259.365C1060.24 255.86 1060.95 252.085 1060.95 248.04C1060.95 243.996 1060.24 240.221 1058.8 236.715C1057.37 233.21 1055.35 230.177 1052.75 227.615C1050.28 224.919 1047.35 222.829 1043.96 221.346C1040.58 219.863 1036.93 219.121 1033.02 219.121H949.049V276.96ZM949.049 161.081H1033.02C1036.93 161.081 1040.58 160.339 1043.96 158.856C1047.35 157.373 1050.28 155.351 1052.75 152.789C1055.35 150.093 1057.37 146.992 1058.8 143.487C1060.24 139.847 1060.95 136.004 1060.95 131.96C1060.95 127.915 1060.24 124.14 1058.8 120.635C1057.37 117.129 1055.35 114.096 1052.75 111.534C1050.28 108.838 1047.35 106.748 1043.96 105.265C1040.58 103.782 1036.93 103.04 1033.02 103.04H949.049V161.081Z" fill="#51B497"/>
<path d="M1115.54 879C1126.63 892.235 1135.18 906.992 1141.19 923.271C1147.06 939.55 1150 956.49 1150 974.093C1150 987.592 1148.24 1000.63 1144.71 1013.2C1141.32 1025.64 1136.49 1037.29 1130.22 1048.14C1123.83 1058.99 1116.25 1068.92 1107.51 1077.92C1098.63 1086.92 1088.84 1094.6 1078.14 1100.95C1067.3 1107.3 1055.68 1112.26 1043.28 1115.84C1030.88 1119.28 1018.02 1121 1004.71 1121C991.391 1121 978.598 1119.28 966.327 1115.84C954.056 1112.26 942.568 1107.3 931.864 1100.95C921.029 1094.6 911.238 1086.92 902.492 1077.92C893.615 1068.92 886.043 1058.99 879.777 1048.14C873.511 1037.29 868.681 1025.64 865.287 1013.2C861.762 1000.63 860 987.592 860 974.093C860 956.49 863.002 939.55 869.007 923.271C874.882 906.992 883.367 892.235 894.463 879L943.417 908.779C934.801 917.381 928.078 927.307 923.248 938.557C918.287 949.807 915.807 961.652 915.807 974.093C915.807 986.534 918.157 998.246 922.856 1009.23C927.556 1020.08 933.952 1029.61 942.046 1037.82C950.009 1046.02 959.408 1052.51 970.243 1057.27C980.948 1062.04 992.435 1064.42 1004.71 1064.42C1017.11 1064.42 1028.73 1062.04 1039.56 1057.27C1050.4 1052.51 1059.86 1046.02 1067.95 1037.82C1076.05 1029.61 1082.44 1020.08 1087.14 1009.23C1091.84 998.246 1094.19 986.534 1094.19 974.093C1094.19 966.946 1093.34 959.998 1091.65 953.248C1089.95 946.498 1087.6 940.079 1084.6 933.991H1004.71V879H1115.54Z" fill="#51B497"/>
<path d="M1060.95 630.121V572.081C1060.95 564.126 1059.45 556.644 1056.46 549.633C1053.6 542.488 1049.62 536.286 1044.55 531.028C1039.47 525.77 1033.48 521.658 1026.58 518.692C1019.81 515.591 1012.58 514.04 1004.9 514.04C997.221 514.04 989.93 515.591 983.03 518.692C976.26 521.658 970.336 525.77 965.258 531.028C960.18 536.286 956.144 542.488 953.15 549.633C950.286 556.644 948.854 564.126 948.854 572.081V630.121H1060.95ZM1117 746H1060.95V687.96H948.854V746H893V572.081C893 556.037 895.929 541.005 901.788 526.983C907.647 512.827 915.589 500.491 925.614 489.975C935.769 479.459 947.617 471.167 961.157 465.1C974.827 459.033 989.409 456 1004.9 456C1020.4 456 1034.91 459.033 1048.45 465.1C1062.12 471.167 1074.04 479.459 1084.19 489.975C1094.35 500.491 1102.35 512.827 1108.21 526.983C1114.07 541.005 1117 556.037 1117 572.081V746Z" fill="#51B497"/>
<path d="M893 1751.96C893 1739.96 895.213 1728.7 899.64 1718.19C904.067 1707.67 910.121 1698.44 917.802 1690.48C925.353 1682.66 934.207 1676.46 944.362 1671.88C954.517 1667.29 965.388 1665 976.976 1665H1117V1955H976.976C965.388 1955 954.517 1952.71 944.362 1948.12C934.207 1943.54 925.353 1937.27 917.802 1929.32C910.121 1921.5 904.067 1912.33 899.64 1901.81C895.213 1891.3 893 1880.04 893 1868.04C893 1862.65 893.716 1857.12 895.148 1851.46C896.58 1845.79 898.598 1840.33 901.202 1835.08C903.806 1829.82 906.931 1825.03 910.576 1820.72C914.222 1816.4 918.258 1812.83 922.684 1810C918.128 1807.44 914.026 1803.93 910.381 1799.48C906.736 1795.17 903.611 1790.38 901.007 1785.13C898.403 1779.87 896.45 1774.34 895.148 1768.54C893.716 1762.88 893 1757.35 893 1751.96ZM1060.95 1723.04H976.976C973.07 1723.04 969.424 1723.78 966.039 1725.26C962.654 1726.75 959.725 1728.77 957.251 1731.33C954.647 1734.03 952.629 1737.13 951.197 1740.63C949.765 1744.14 949.049 1747.91 949.049 1751.96C949.049 1756 949.765 1759.78 951.197 1763.28C952.629 1766.79 954.647 1769.82 957.251 1772.38C959.725 1775.08 962.654 1777.17 966.039 1778.65C969.424 1780.14 973.07 1780.88 976.976 1780.88H1060.95V1723.04ZM1060.95 1838.92H976.976C973.07 1838.92 969.424 1839.66 966.039 1841.14C962.654 1842.63 959.725 1844.65 957.251 1847.21C954.647 1849.91 952.629 1853.01 951.197 1856.51C949.765 1860.15 949.049 1864 949.049 1868.04C949.049 1872.09 949.765 1875.86 951.197 1879.37C952.629 1882.87 954.647 1885.9 957.251 1888.47C959.725 1891.16 962.654 1893.25 966.039 1894.74C969.424 1896.22 973.07 1896.96 976.976 1896.96H1060.95V1838.92Z" fill="#51B497"/>
<path d="M949.049 1369.88V1427.92C949.049 1435.87 950.546 1443.36 953.541 1450.37C956.405 1457.51 960.376 1463.71 965.453 1468.97C970.531 1474.23 976.52 1478.34 983.42 1481.31C990.19 1484.41 997.416 1485.96 1005.1 1485.96C1012.78 1485.96 1020.07 1484.41 1026.97 1481.31C1033.74 1478.34 1039.66 1474.23 1044.74 1468.97C1049.82 1463.71 1053.86 1457.51 1056.85 1450.37C1059.71 1443.36 1061.15 1435.87 1061.15 1427.92V1369.88H949.049ZM893 1254H949.049V1312.04H1061.15V1254H1117V1427.92C1117 1443.96 1114.07 1459 1108.21 1473.02C1102.35 1487.17 1094.41 1499.51 1084.39 1510.03C1074.23 1520.54 1062.38 1528.83 1048.84 1534.9C1035.17 1540.97 1020.59 1544 1005.1 1544C989.604 1544 975.088 1540.97 961.548 1534.9C947.877 1528.83 935.964 1520.54 925.809 1510.03C915.654 1499.51 907.647 1487.17 901.788 1473.02C895.929 1459 893 1443.96 893 1427.92V1254Z" fill="#51B497"/>
<path d="M1175 456H1399V746H1175V687.96H1333.6V629.919H1226.27V571.879H1333.6V514.04H1175V456Z" fill="white"/>
<path d="M1342.95 276.96V160.879H1286.9C1279.22 160.879 1272 162.362 1265.22 165.328C1258.45 168.429 1252.53 172.608 1247.45 177.866C1242.38 183.124 1238.4 189.258 1235.54 196.269C1232.55 203.415 1231.05 210.965 1231.05 218.919C1231.05 226.874 1232.55 234.356 1235.54 241.367C1238.4 248.512 1242.38 254.714 1247.45 259.972C1252.53 265.23 1258.45 269.342 1265.22 272.308C1272 275.409 1279.22 276.96 1286.9 276.96H1342.95ZM1342.95 45H1399V335H1286.9C1276.62 335 1266.72 333.584 1257.22 330.753C1247.71 328.057 1238.86 324.147 1230.66 319.024C1222.33 314.035 1214.77 307.968 1208 300.823C1201.1 293.812 1195.25 285.993 1190.43 277.364C1185.48 268.735 1181.71 259.5 1179.1 249.658C1176.37 239.816 1175 229.57 1175 218.919C1175 208.942 1176.24 199.235 1178.71 189.798C1181.05 180.36 1184.5 171.395 1189.06 162.901C1193.49 154.407 1198.96 146.588 1205.47 139.442C1211.98 132.297 1219.27 126.095 1227.34 120.837L1196.29 45H1255.85L1280.26 103.445L1342.95 103.04V45Z" fill="white"/>
<path d="M1342.95 1086.96V970.879H1286.9C1279.22 970.879 1272 972.362 1265.22 975.328C1258.45 978.429 1252.53 982.608 1247.45 987.866C1242.38 993.124 1238.4 999.258 1235.54 1006.27C1232.55 1013.41 1231.05 1020.96 1231.05 1028.92C1231.05 1036.87 1232.55 1044.36 1235.54 1051.37C1238.4 1058.51 1242.38 1064.71 1247.45 1069.97C1252.53 1075.23 1258.45 1079.34 1265.22 1082.31C1272 1085.41 1279.22 1086.96 1286.9 1086.96H1342.95ZM1342.95 855H1399V1145H1286.9C1276.62 1145 1266.72 1143.58 1257.22 1140.75C1247.71 1138.06 1238.86 1134.15 1230.66 1129.02C1222.33 1124.04 1214.77 1117.97 1208 1110.82C1201.1 1103.81 1195.25 1095.99 1190.43 1087.36C1185.48 1078.74 1181.71 1069.5 1179.1 1059.66C1176.37 1049.82 1175 1039.57 1175 1028.92C1175 1013.01 1177.93 997.978 1183.79 983.821C1189.65 969.8 1197.65 957.531 1207.81 947.015C1217.96 936.499 1229.88 928.208 1243.55 922.141C1257.09 916.074 1271.54 913.04 1286.9 913.04H1342.95V855Z" fill="white"/>
<path d="M1342.95 1896.96V1780.88H1286.9C1279.22 1780.88 1272 1782.36 1265.22 1785.33C1258.45 1788.43 1252.53 1792.61 1247.45 1797.87C1242.38 1803.12 1238.4 1809.26 1235.54 1816.27C1232.55 1823.41 1231.05 1830.96 1231.05 1838.92C1231.05 1846.87 1232.55 1854.36 1235.54 1861.37C1238.4 1868.51 1242.38 1874.71 1247.45 1879.97C1252.53 1885.23 1258.45 1889.34 1265.22 1892.31C1272 1895.41 1279.22 1896.96 1286.9 1896.96H1342.95ZM1342.95 1665H1399V1955H1286.9C1276.62 1955 1266.72 1953.58 1257.22 1950.75C1247.71 1948.06 1238.86 1944.15 1230.66 1939.02C1222.33 1934.04 1214.77 1927.97 1208 1920.82C1201.1 1913.81 1195.25 1905.99 1190.43 1897.36C1185.48 1888.74 1181.71 1879.5 1179.1 1869.66C1176.37 1859.82 1175 1849.57 1175 1838.92C1175 1823.01 1177.93 1807.98 1183.79 1793.82C1189.65 1779.8 1197.65 1767.53 1207.81 1757.02C1217.96 1746.5 1229.88 1738.21 1243.55 1732.14C1257.09 1726.07 1271.54 1723.04 1286.9 1723.04H1342.95V1665Z" fill="white"/>
<path d="M1231.05 1369.88V1427.92C1231.05 1435.87 1232.55 1443.36 1235.54 1450.37C1238.4 1457.51 1242.38 1463.71 1247.45 1468.97C1252.53 1474.23 1258.52 1478.34 1265.42 1481.31C1272.19 1484.41 1279.42 1485.96 1287.1 1485.96C1294.78 1485.96 1302.07 1484.41 1308.97 1481.31C1315.74 1478.34 1321.66 1474.23 1326.74 1468.97C1331.82 1463.71 1335.86 1457.51 1338.85 1450.37C1341.71 1443.36 1343.15 1435.87 1343.15 1427.92V1369.88H1231.05ZM1175 1254H1231.05V1312.04H1343.15V1254H1399V1427.92C1399 1443.96 1396.07 1459 1390.21 1473.02C1384.35 1487.17 1376.41 1499.51 1366.39 1510.03C1356.23 1520.54 1344.38 1528.83 1330.84 1534.9C1317.17 1540.97 1302.59 1544 1287.1 1544C1271.6 1544 1257.09 1540.97 1243.55 1534.9C1229.88 1528.83 1217.96 1520.54 1207.81 1510.03C1197.65 1499.51 1189.65 1487.17 1183.79 1473.02C1177.93 1459 1175 1443.96 1175 1427.92V1254Z" fill="white"/>
<path d="M586 189.902C586 203.2 584.24 216.041 580.72 228.425C577.331 240.68 572.507 252.217 566.25 263.038C559.992 273.728 552.431 283.505 543.566 292.37C534.701 301.235 524.923 308.862 514.233 315.25C503.543 321.507 492.006 326.331 479.621 329.72C467.236 333.24 454.395 335 441.098 335C427.8 335 414.959 333.24 402.575 329.72C390.32 326.331 378.783 321.507 367.962 315.25C357.272 308.862 347.495 301.235 338.63 292.37C329.765 283.505 322.138 273.728 315.751 263.038C309.493 252.217 304.604 240.68 301.084 228.425C297.695 216.041 296 203.2 296 189.902C296 176.605 297.695 163.764 301.084 151.379C304.604 138.994 309.493 127.457 315.751 116.767C322.138 106.077 329.765 96.2992 338.63 87.4343C347.495 78.5693 357.272 71.0081 367.962 64.7505C378.783 58.4929 390.32 53.6694 402.575 50.2798C414.959 46.7599 427.8 45 441.098 45C454.395 45 467.236 46.7599 479.621 50.2798C492.006 53.6694 503.543 58.4929 514.233 64.7505C524.923 71.0081 534.701 78.5693 543.566 87.4343C552.431 96.2992 559.992 106.077 566.25 116.767C572.507 127.457 577.331 138.994 580.72 151.379C584.24 163.764 586 176.605 586 189.902ZM530.268 189.902C530.268 177.648 527.922 166.11 523.229 155.29C518.535 144.339 512.147 134.888 504.065 126.935C496.112 118.853 486.661 112.465 475.71 107.771C464.89 103.078 453.352 100.732 441.098 100.732C428.713 100.732 417.11 103.078 406.29 107.771C395.47 112.465 386.018 118.853 377.935 126.935C369.853 134.888 363.465 144.339 358.771 155.29C354.078 166.11 351.732 177.648 351.732 189.902C351.732 202.157 354.078 213.694 358.771 224.515C363.465 235.205 369.853 244.591 377.935 252.674C386.018 260.756 395.47 267.144 406.29 271.837C417.11 276.531 428.713 278.877 441.098 278.877C453.352 278.877 464.89 276.531 475.71 271.837C486.661 267.144 496.112 260.756 504.065 252.674C512.147 244.591 518.535 235.205 523.229 224.515C527.922 213.694 530.268 202.157 530.268 189.902Z" fill="#51B497"/>
<path d="M385.049 746H329V456H385.049V572.081H496.951V456H553V746H496.951V630.121H385.049V746Z" fill="#51B497"/>
<path d="M561 1920.54C547.874 1931.63 533.24 1940.18 517.095 1946.19C500.951 1952.06 484.15 1955 466.693 1955C453.305 1955 440.377 1953.24 427.907 1949.71C415.569 1946.32 404.019 1941.49 393.256 1935.22C382.493 1928.83 372.649 1921.25 363.724 1912.51C354.798 1903.63 347.185 1893.84 340.885 1883.14C334.585 1872.3 329.663 1860.68 326.119 1848.28C322.706 1835.88 321 1823.02 321 1809.71C321 1796.39 322.706 1783.6 326.119 1771.33C329.663 1759.06 334.585 1747.57 340.885 1736.86C347.185 1726.03 354.798 1716.24 363.724 1707.49C372.649 1698.61 382.493 1691.04 393.256 1684.78C404.019 1678.51 415.569 1673.68 427.907 1670.29C440.377 1666.76 453.305 1665 466.693 1665C484.15 1665 500.951 1668 517.095 1674.01C533.24 1679.88 547.874 1688.37 561 1699.46L531.468 1748.42C522.936 1739.8 513.092 1733.08 501.935 1728.25C490.779 1723.29 479.031 1720.81 466.693 1720.81C454.355 1720.81 442.739 1723.16 431.845 1727.86C421.082 1732.56 411.632 1738.95 403.494 1747.05C395.356 1755.01 388.925 1764.41 384.199 1775.24C379.474 1785.95 377.112 1797.44 377.112 1809.71C377.112 1822.11 379.474 1833.73 384.199 1844.56C388.925 1855.4 395.356 1864.86 403.494 1872.95C411.632 1881.05 421.082 1887.44 431.845 1892.14C442.739 1896.84 454.355 1899.19 466.693 1899.19C473.781 1899.19 480.672 1898.34 487.366 1896.65C494.06 1894.95 500.426 1892.6 506.463 1889.6V1809.71H561V1920.54Z" fill="#51B497"/>
<path d="M553 1145H493.045L385.049 954.093V1145H329V855H388.955L496.951 1046.11V855H553V1145Z" fill="#51B497"/>
<path d="M555 1428.12C555 1444.17 552.018 1459.26 546.055 1473.42C540.092 1487.44 531.942 1499.71 521.605 1510.23C511.269 1520.61 499.143 1528.83 485.228 1534.9C471.446 1540.97 456.67 1544 440.901 1544C425.131 1544 410.289 1540.97 396.374 1534.9C382.592 1528.83 370.533 1520.61 360.196 1510.23C349.992 1499.71 341.908 1487.44 335.945 1473.42C329.982 1459.26 327 1444.17 327 1428.12V1254H383.851V1428.12C383.851 1436.08 385.309 1443.56 388.224 1450.57C391.272 1457.58 395.38 1463.71 400.548 1468.97C405.717 1474.23 411.746 1478.41 418.637 1481.51C425.661 1484.48 433.082 1485.96 440.901 1485.96C448.719 1485.96 456.074 1484.48 462.965 1481.51C469.989 1478.41 476.085 1474.23 481.253 1468.97C486.421 1463.71 490.463 1457.58 493.378 1450.57C496.426 1443.56 497.95 1436.08 497.95 1428.12V1254H555V1428.12Z" fill="#51B497"/>
<path d="M1424 1810.1C1424 1796.8 1425.7 1783.96 1429.1 1771.57C1432.37 1759.32 1437.03 1747.78 1443.07 1736.96C1449.11 1726.27 1456.41 1716.49 1464.97 1707.63C1473.53 1698.76 1482.97 1691.14 1493.29 1684.75C1503.61 1678.49 1514.75 1673.67 1526.71 1670.28C1538.67 1666.76 1551.07 1665 1563.91 1665C1576.74 1665 1589.14 1666.76 1601.1 1670.28C1612.93 1673.67 1624.07 1678.49 1634.52 1684.75C1644.84 1691.14 1654.28 1698.76 1662.84 1707.63C1671.4 1716.49 1678.76 1726.27 1684.93 1736.96C1690.97 1747.78 1695.69 1759.32 1699.09 1771.57C1702.36 1783.96 1704 1796.8 1704 1810.1C1704 1823.4 1702.36 1836.24 1699.09 1848.62C1695.69 1861.01 1690.97 1872.54 1684.93 1883.23C1678.76 1893.92 1671.4 1903.7 1662.84 1912.57C1654.28 1921.43 1644.84 1928.99 1634.52 1935.25C1624.07 1941.51 1612.93 1946.33 1601.1 1949.72C1589.14 1953.24 1576.74 1955 1563.91 1955C1551.07 1955 1538.67 1953.24 1526.71 1949.72C1514.75 1946.33 1503.61 1941.51 1493.29 1935.25C1482.97 1928.99 1473.53 1921.43 1464.97 1912.57C1456.41 1903.7 1449.11 1893.92 1443.07 1883.23C1437.03 1872.54 1432.37 1861.01 1429.1 1848.62C1425.7 1836.24 1424 1823.4 1424 1810.1ZM1477.81 1810.1C1477.81 1822.35 1480.08 1833.89 1484.61 1844.71C1489.14 1855.66 1495.31 1865.11 1503.11 1873.06C1510.79 1881.15 1519.91 1887.54 1530.49 1892.23C1540.93 1896.92 1552.07 1899.27 1563.91 1899.27C1575.86 1899.27 1587.07 1896.92 1597.51 1892.23C1607.96 1887.54 1617.09 1881.15 1624.89 1873.06C1632.69 1865.11 1638.86 1855.66 1643.39 1844.71C1647.92 1833.89 1650.19 1822.35 1650.19 1810.1C1650.19 1797.84 1647.92 1786.31 1643.39 1775.49C1638.86 1764.8 1632.69 1755.41 1624.89 1747.33C1617.09 1739.24 1607.96 1732.86 1597.51 1728.16C1587.07 1723.47 1575.86 1721.12 1563.91 1721.12C1552.07 1721.12 1540.93 1723.47 1530.49 1728.16C1519.91 1732.86 1510.79 1739.24 1503.11 1747.33C1495.31 1755.41 1489.14 1764.8 1484.61 1775.49C1480.08 1786.31 1477.81 1797.84 1477.81 1810.1Z" fill="#51B497"/>
<path d="M1619.95 1254H1676V1544H1619.95V1427.92H1508.05V1544H1452V1254H1508.05V1369.88H1619.95V1254Z" fill="#51B497"/>
<path d="M1444 79.4632C1457.13 68.3671 1471.76 59.8166 1487.9 53.8116C1504.05 47.9372 1520.85 45 1538.31 45C1551.69 45 1564.62 46.7623 1577.09 50.287C1589.43 53.6811 1600.98 58.5111 1611.74 64.7772C1622.51 71.1737 1632.35 78.7452 1641.28 87.4915C1650.2 96.3684 1657.81 106.159 1664.11 116.864C1670.42 127.699 1675.34 139.317 1678.88 151.718C1682.29 164.12 1684 176.978 1684 190.294C1684 203.609 1682.29 216.402 1678.88 228.673C1675.34 240.944 1670.42 252.432 1664.11 263.136C1657.81 273.971 1650.2 283.762 1641.28 292.508C1632.35 301.385 1622.51 308.957 1611.74 315.223C1600.98 321.489 1589.43 326.319 1577.09 329.713C1564.62 333.238 1551.69 335 1538.31 335C1520.85 335 1504.05 331.998 1487.9 325.993C1471.76 320.118 1457.13 311.633 1444 300.537L1473.53 251.583C1482.06 260.199 1491.91 266.922 1503.06 271.752C1514.22 276.713 1525.97 279.193 1538.31 279.193C1550.64 279.193 1562.26 276.843 1573.16 272.144C1583.92 267.444 1593.37 261.048 1601.51 252.954C1609.64 244.991 1616.08 235.592 1620.8 224.757C1625.53 214.052 1627.89 202.565 1627.89 190.294C1627.89 177.892 1625.53 166.274 1620.8 155.439C1616.08 144.604 1609.64 135.14 1601.51 127.046C1593.37 118.952 1583.92 112.556 1573.16 107.856C1562.26 103.157 1550.64 100.807 1538.31 100.807C1531.22 100.807 1524.33 101.655 1517.63 103.352C1510.94 105.05 1504.57 107.399 1498.54 110.402V190.294H1444V79.4632Z" fill="#51B497"/>
<path d="M1452 855H1511.95L1619.95 1045.91V855H1676V1145H1616.05L1508.05 953.891V1145H1452V855Z" fill="#51B497"/>
<path d="M1450 571.879C1450 555.835 1452.98 540.735 1458.95 526.579C1464.91 512.557 1473.06 500.289 1483.39 489.773C1493.73 479.391 1505.86 471.167 1519.77 465.1C1533.55 459.033 1548.33 456 1564.1 456C1579.87 456 1594.71 459.033 1608.63 465.1C1622.41 471.167 1634.47 479.391 1644.8 489.773C1655.01 500.289 1663.09 512.557 1669.05 526.579C1675.02 540.735 1678 555.835 1678 571.879V746H1621.15V571.879C1621.15 563.924 1619.69 556.442 1616.78 549.431C1613.73 542.42 1609.62 536.286 1604.45 531.028C1599.28 525.77 1593.25 521.59 1586.36 518.49C1579.34 515.523 1571.92 514.04 1564.1 514.04C1556.28 514.04 1548.93 515.523 1542.03 518.49C1535.01 521.59 1528.92 525.77 1523.75 531.028C1518.58 536.286 1514.54 542.42 1511.62 549.431C1508.57 556.442 1507.05 563.924 1507.05 571.879V746H1450V571.879Z" fill="#51B497"/>
<path d="M271 300.537C258.312 311.633 244.165 320.183 228.559 326.188C212.952 332.063 196.712 335 179.837 335C166.895 335 154.397 333.238 142.344 329.713C130.417 326.319 119.252 321.489 108.847 315.223C98.4433 308.826 88.9273 301.255 80.2994 292.508C71.6716 283.632 64.3126 273.841 58.2223 263.136C52.1321 252.301 47.3741 240.683 43.9483 228.282C40.6494 215.88 39 203.022 39 189.706C39 176.391 40.6494 163.598 43.9483 151.327C47.3741 139.056 52.1321 127.568 58.2223 116.864C64.3126 106.029 71.6716 96.2379 80.2994 87.4916C88.9273 78.6147 98.4433 71.0432 108.847 64.7772C119.252 58.5111 130.417 53.6811 142.344 50.287C154.397 46.7623 166.895 45 179.837 45C196.712 45 212.952 48.0025 228.559 54.0074C244.165 59.8818 258.312 68.3671 271 79.4632L242.452 128.417C234.205 119.801 224.689 113.078 213.904 108.248C203.119 103.287 191.763 100.807 179.837 100.807C167.91 100.807 156.681 103.157 146.15 107.856C135.746 112.556 126.611 118.952 118.744 127.046C110.877 135.009 104.66 144.408 100.093 155.243C95.525 165.948 93.2412 177.435 93.2412 189.706C93.2412 202.108 95.525 213.726 100.093 224.561C104.66 235.396 110.877 244.86 118.744 252.954C126.611 261.048 135.746 267.444 146.15 272.144C156.681 276.843 167.91 279.193 179.837 279.193C186.688 279.193 193.349 278.345 199.82 276.648C206.291 274.95 212.445 272.601 218.281 269.598V189.706H271V300.537Z" fill="#51B497"/>
<path d="M99.0488 1723.04V1839.12H155.098C162.779 1839.12 170.005 1837.64 176.775 1834.67C183.545 1831.57 189.469 1827.39 194.547 1822.13C199.624 1816.88 203.595 1810.74 206.459 1803.73C209.454 1796.59 210.951 1789.04 210.951 1781.08C210.951 1773.13 209.454 1765.64 206.459 1758.63C203.595 1751.49 199.624 1745.29 194.547 1740.03C189.469 1734.77 183.545 1730.66 176.775 1727.69C170.005 1724.59 162.779 1723.04 155.098 1723.04H99.0488ZM99.0488 1955H43V1665H155.098C165.383 1665 175.278 1666.42 184.782 1669.25C194.286 1671.94 203.139 1675.85 211.342 1680.98C219.674 1685.96 227.226 1692.03 233.996 1699.18C240.896 1706.19 246.755 1714.01 251.572 1722.64C256.519 1731.26 260.295 1740.5 262.899 1750.34C265.633 1760.18 267 1770.43 267 1781.08C267 1791.06 265.763 1800.76 263.289 1810.2C260.946 1819.64 257.496 1828.61 252.939 1837.1C248.512 1845.59 243.044 1853.41 236.534 1860.56C230.025 1867.7 222.734 1873.91 214.662 1879.16L245.713 1955H186.149L161.738 1896.56L99.0488 1896.96V1955Z" fill="#51B497"/>
<path d="M183.024 746H127.171V514.04H43V456H267V514.04H183.024V746Z" fill="#51B497"/>
<path d="M267 1457.04C267 1469.04 264.787 1480.3 260.36 1490.81C255.933 1501.33 249.879 1510.56 242.198 1518.52C234.647 1526.34 225.793 1532.54 215.638 1537.12C205.483 1541.71 194.612 1544 183.024 1544H43V1254H183.024C194.612 1254 205.483 1256.29 215.638 1260.88C225.793 1265.46 234.647 1271.73 242.198 1279.68C249.879 1287.5 255.933 1296.67 260.36 1307.19C264.787 1317.7 267 1328.96 267 1340.96C267 1346.35 266.284 1351.88 264.852 1357.54C263.42 1363.21 261.402 1368.67 258.798 1373.92C256.194 1379.18 253.069 1383.97 249.424 1388.28C245.778 1392.6 241.742 1396.17 237.316 1399C241.872 1401.56 245.974 1405.07 249.619 1409.52C253.264 1413.83 256.389 1418.62 258.993 1423.87C261.597 1429.13 263.55 1434.66 264.852 1440.46C266.284 1446.12 267 1451.65 267 1457.04ZM99.0488 1485.96H183.024C186.93 1485.96 190.576 1485.22 193.961 1483.74C197.346 1482.25 200.275 1480.23 202.749 1477.67C205.353 1474.97 207.371 1471.87 208.803 1468.37C210.235 1464.86 210.951 1461.09 210.951 1457.04C210.951 1453 210.235 1449.22 208.803 1445.72C207.371 1442.21 205.353 1439.18 202.749 1436.62C200.275 1433.92 197.346 1431.83 193.961 1430.35C190.576 1428.86 186.93 1428.12 183.024 1428.12H99.0488V1485.96ZM99.0488 1370.08H183.024C186.93 1370.08 190.576 1369.34 193.961 1367.86C197.346 1366.37 200.275 1364.35 202.749 1361.79C205.353 1359.09 207.371 1355.99 208.803 1352.49C210.235 1348.85 210.951 1345 210.951 1340.96C210.951 1336.91 210.235 1333.14 208.803 1329.63C207.371 1326.13 205.353 1323.1 202.749 1320.53C200.275 1317.84 197.346 1315.75 193.961 1314.26C190.576 1312.78 186.93 1312.04 183.024 1312.04H99.0488V1370.08Z" fill="#51B497"/>
<path d="M267 1145H43V855H267V913.04H108.4V971.081H211.4V1029.12H108.4V1086.96H267V1145Z" fill="#51B497"/>
<path d="M1729 1699.46C1741.69 1688.37 1755.84 1679.82 1771.44 1673.81C1787.05 1667.94 1803.29 1665 1820.16 1665C1833.11 1665 1845.6 1666.76 1857.66 1670.29C1869.58 1673.68 1880.75 1678.51 1891.15 1684.78C1901.56 1691.17 1911.07 1698.75 1919.7 1707.49C1928.33 1716.37 1935.69 1726.16 1941.78 1736.86C1947.87 1747.7 1952.63 1759.32 1956.05 1771.72C1959.35 1784.12 1961 1796.98 1961 1810.29C1961 1823.61 1959.35 1836.4 1956.05 1848.67C1952.63 1860.94 1947.87 1872.43 1941.78 1883.14C1935.69 1893.97 1928.33 1903.76 1919.7 1912.51C1911.07 1921.39 1901.56 1928.96 1891.15 1935.22C1880.75 1941.49 1869.58 1946.32 1857.66 1949.71C1845.6 1953.24 1833.11 1955 1820.16 1955C1803.29 1955 1787.05 1952 1771.44 1945.99C1755.84 1940.12 1741.69 1931.63 1729 1920.54L1757.55 1871.58C1765.8 1880.2 1775.31 1886.92 1786.1 1891.75C1796.88 1896.71 1808.24 1899.19 1820.16 1899.19C1832.09 1899.19 1843.32 1896.84 1853.85 1892.14C1864.25 1887.44 1873.39 1881.05 1881.26 1872.95C1889.12 1864.99 1895.34 1855.59 1899.91 1844.76C1904.47 1834.05 1906.76 1822.56 1906.76 1810.29C1906.76 1797.89 1904.47 1786.27 1899.91 1775.44C1895.34 1764.6 1889.12 1755.14 1881.26 1747.05C1873.39 1738.95 1864.25 1732.56 1853.85 1727.86C1843.32 1723.16 1832.09 1720.81 1820.16 1720.81C1813.31 1720.81 1806.65 1721.66 1800.18 1723.35C1793.71 1725.05 1787.56 1727.4 1781.72 1730.4V1810.29H1729V1699.46Z" fill="#51B497"/>
<path d="M1900.95 276.96V160.879H1844.9C1837.22 160.879 1830 162.362 1823.22 165.328C1816.45 168.429 1810.53 172.608 1805.45 177.866C1800.38 183.124 1796.4 189.258 1793.54 196.269C1790.55 203.415 1789.05 210.965 1789.05 218.919C1789.05 226.874 1790.55 234.356 1793.54 241.367C1796.4 248.512 1800.38 254.714 1805.45 259.972C1810.53 265.23 1816.45 269.342 1823.22 272.308C1830 275.409 1837.22 276.96 1844.9 276.96H1900.95ZM1900.95 45H1957V335H1844.9C1834.62 335 1824.72 333.584 1815.22 330.753C1805.71 328.057 1796.86 324.147 1788.66 319.024C1780.33 314.035 1772.77 307.968 1766 300.823C1759.1 293.812 1753.25 285.993 1748.43 277.364C1743.48 268.735 1739.71 259.5 1737.1 249.658C1734.37 239.816 1733 229.57 1733 218.919C1733 208.942 1734.24 199.235 1736.71 189.798C1739.05 180.36 1742.5 171.395 1747.06 162.901C1751.49 154.407 1756.96 146.588 1763.47 139.442C1769.98 132.297 1777.27 126.095 1785.34 120.837L1754.29 45H1813.85L1838.26 103.445L1900.95 103.04V45Z" fill="#51B497"/>
<path d="M1816.98 1254H1872.83V1485.96H1957V1544H1733V1485.96H1816.98V1254Z" fill="#51B497"/>
<path d="M1733 542.96C1733 530.96 1735.21 519.703 1739.64 509.187C1744.07 498.671 1750.12 489.436 1757.8 481.481C1765.35 473.662 1774.21 467.46 1784.36 462.876C1794.52 458.292 1805.39 456 1816.98 456H1957V746H1816.98C1805.39 746 1794.52 743.708 1784.36 739.124C1774.21 734.54 1765.35 728.271 1757.8 720.317C1750.12 712.497 1744.07 703.329 1739.64 692.813C1735.21 682.297 1733 671.04 1733 659.04C1733 653.648 1733.72 648.12 1735.15 642.457C1736.58 636.795 1738.6 631.335 1741.2 626.077C1743.81 620.819 1746.93 616.033 1750.58 611.718C1754.22 607.404 1758.26 603.831 1762.68 601C1758.13 598.438 1754.03 594.933 1750.38 590.484C1746.74 586.17 1743.61 581.384 1741.01 576.126C1738.4 570.867 1736.45 565.34 1735.15 559.543C1733.72 553.88 1733 548.352 1733 542.96ZM1900.95 514.04H1816.98C1813.07 514.04 1809.42 514.782 1806.04 516.265C1802.65 517.748 1799.72 519.77 1797.25 522.332C1794.65 525.028 1792.63 528.129 1791.2 531.635C1789.76 535.14 1789.05 538.915 1789.05 542.96C1789.05 547.004 1789.76 550.779 1791.2 554.285C1792.63 557.79 1794.65 560.823 1797.25 563.385C1799.72 566.081 1802.65 568.171 1806.04 569.654C1809.42 571.137 1813.07 571.879 1816.98 571.879H1900.95V514.04ZM1900.95 629.919H1816.98C1813.07 629.919 1809.42 630.661 1806.04 632.144C1802.65 633.627 1799.72 635.649 1797.25 638.211C1794.65 640.907 1792.63 644.008 1791.2 647.513C1789.76 651.153 1789.05 654.996 1789.05 659.04C1789.05 663.085 1789.76 666.86 1791.2 670.365C1792.63 673.871 1794.65 676.904 1797.25 679.466C1799.72 682.162 1802.65 684.252 1806.04 685.735C1809.42 687.218 1813.07 687.96 1816.98 687.96H1900.95V629.919Z" fill="#51B497"/>
<path d="M1733 855H1957V1145H1733V1086.96H1891.6V1028.92H1788.6V970.879H1891.6V913.04H1733V855Z" fill="#51B497"/>
</svg>
