<svg width="1000" height="1000" viewBox="0 0 1000 1000" fill="none" xmlns="http://www.w3.org/2000/svg">
<rect width="1000" height="1000" fill="#EDFAF7"/>
<circle cx="461.091" cy="404.182" r="9.09091" stroke="#E78F3D" stroke-width="18.1818"/>
<g filter="url(#filter0_d_78_3972)">
<path d="M461.091 576.909L460.004 443.045M460.004 443.045L529.273 508.727L597.454 422.364M460.004 443.045C447.614 430.289 430.278 422.364 411.091 422.364C373.435 422.364 342.909 452.89 342.909 490.545C342.909 528.201 373.435 558.727 411.091 558.727C430.278 558.727 448.385 550.802 460.775 538.045M597.454 558.727V422.364M597.454 558.727H733.818V499.636M597.454 558.727V499.636M597.454 422.364H733.818M597.454 422.364V499.636M831.545 539.338L845.182 499.636M845.182 499.636L871.438 422.364L908.818 499.636M845.182 499.636H908.818M908.818 499.636L933.818 558.727M879.273 558.727L733.818 499.636M733.818 499.636H770.182C787.754 499.636 802 478.573 802 461C802 443.427 787.754 422.364 770.182 422.364H733.818M733.818 499.636V422.364M597.454 499.636H667.909M167.748 490.545H236.252M167.748 490.545L202 422.364L236.252 490.545M167.748 490.545L133.496 558.727L65.6362 422.364M236.252 490.545L245.182 508.727M360.004 443.045C347.614 430.289 330.278 422.364 311.091 422.364C273.435 422.364 242.909 452.89 242.909 490.545C242.909 528.201 273.435 558.727 311.091 558.727C330.278 558.727 347.88 548.756 360.27 536" stroke="#31564F" stroke-width="9.09091" stroke-linecap="round" stroke-linejoin="round"/>
</g>
<defs>
<filter id="filter0_d_78_3972" x="61.0898" y="417.817" width="881.82" height="168.183" filterUnits="userSpaceOnUse" color-interpolation-filters="sRGB">
<feFlood flood-opacity="0" result="BackgroundImageFix"/>
<feColorMatrix in="SourceAlpha" type="matrix" values="0 0 0 0 0 0 0 0 0 0 0 0 0 0 0 0 0 0 127 0" result="hardAlpha"/>
<feOffset dx="4.54545" dy="4.54545"/>
<feColorMatrix type="matrix" values="0 0 0 0 0.302517 0 0 0 0 0.854167 0 0 0 0 0.821068 0 0 0 0.5 0"/>
<feBlend mode="normal" in2="BackgroundImageFix" result="effect1_dropShadow_78_3972"/>
<feBlend mode="normal" in="SourceGraphic" in2="effect1_dropShadow_78_3972" result="shape"/>
</filter>
</defs>
</svg>
