<svg width="2000" height="2000" viewBox="0 0 2000 2000" fill="none" xmlns="http://www.w3.org/2000/svg">
<rect width="2000" height="2000" fill="#E3E755"/>
<path d="M1048.71 572.301V523.868C1048.71 517.23 1047.42 510.986 1044.84 505.135C1042.37 499.172 1038.95 493.997 1034.57 489.609C1030.2 485.222 1025.04 481.79 1019.09 479.315C1013.26 476.728 1007.03 475.434 1000.42 475.434C993.797 475.434 987.516 476.728 981.57 479.315C975.737 481.79 970.633 485.222 966.258 489.609C961.883 493.997 958.406 499.172 955.826 505.135C953.358 510.986 952.124 517.23 952.124 523.868V572.301H1048.71ZM1097 669H1048.71V620.566H952.124V669H904V523.868C904 510.479 906.524 497.935 911.572 486.234C916.62 474.421 923.463 464.127 932.1 455.351C940.85 446.576 951.058 439.657 962.724 434.594C974.503 429.531 987.067 427 1000.42 427C1013.76 427 1026.27 429.531 1037.94 434.594C1049.72 439.657 1059.98 446.576 1068.73 455.351C1077.48 464.127 1084.38 474.421 1089.43 486.234C1094.48 497.935 1097 510.479 1097 523.868V669Z" fill="#51B497"/>
<path d="M952.292 1147.7V1196.13C952.292 1202.77 953.582 1209.01 956.162 1214.86C958.63 1220.83 962.051 1226 966.426 1230.39C970.801 1234.78 975.961 1238.21 981.907 1240.68C987.74 1243.27 993.966 1244.57 1000.58 1244.57C1007.2 1244.57 1013.48 1243.27 1019.43 1240.68C1025.26 1238.21 1030.37 1234.78 1034.74 1230.39C1039.12 1226 1042.59 1220.83 1045.17 1214.86C1047.64 1209.01 1048.88 1202.77 1048.88 1196.13V1147.7H952.292ZM904 1051H952.292V1099.43H1048.88V1051H1097V1196.13C1097 1209.52 1094.48 1222.07 1089.43 1233.77C1084.38 1245.58 1077.54 1255.87 1068.9 1264.65C1060.15 1273.42 1049.94 1280.34 1038.28 1285.41C1026.5 1290.47 1013.93 1293 1000.58 1293C987.235 1293 974.727 1290.47 963.061 1285.41C951.282 1280.34 941.018 1273.42 932.269 1264.65C923.519 1255.87 916.62 1245.58 911.572 1233.77C906.524 1222.07 904 1209.52 904 1196.13V1051Z" fill="#51B497"/>
<path d="M1311.71 932.566V835.699H1263.42C1256.8 835.699 1250.57 836.936 1244.74 839.411C1238.91 841.999 1233.8 845.487 1229.43 849.874C1225.05 854.262 1221.63 859.381 1219.16 865.232C1216.58 871.194 1215.29 877.495 1215.29 884.132C1215.29 890.77 1216.58 897.014 1219.16 902.865C1221.63 908.828 1225.05 914.003 1229.43 918.391C1233.8 922.778 1238.91 926.21 1244.74 928.685C1250.57 931.272 1256.8 932.566 1263.42 932.566H1311.71ZM1311.71 739H1360V981H1263.42C1254.55 981 1246.03 979.819 1237.84 977.456C1229.65 975.206 1222.02 971.943 1214.96 967.668C1207.78 963.505 1201.27 958.443 1195.44 952.48C1189.49 946.629 1184.44 940.104 1180.29 932.904C1176.03 925.703 1172.78 917.997 1170.53 909.784C1168.18 901.571 1167 893.02 1167 884.132C1167 870.857 1169.52 858.312 1174.57 846.499C1179.62 834.799 1186.52 824.561 1195.27 815.785C1204.02 807.01 1214.28 800.091 1226.06 795.028C1237.73 789.965 1250.18 787.434 1263.42 787.434H1311.71V739Z" fill="white"/>
<path d="M689.292 787.434V884.301H737.584C744.203 884.301 750.428 883.064 756.262 880.589C762.095 878.001 767.199 874.513 771.574 870.126C775.949 865.738 779.37 860.619 781.838 854.768C784.418 848.806 785.708 842.505 785.708 835.868C785.708 829.23 784.418 822.986 781.838 817.135C779.37 811.172 775.949 805.997 771.574 801.609C767.199 797.222 762.095 793.79 756.262 791.315C750.428 788.728 744.203 787.434 737.584 787.434H689.292ZM689.292 981H641V739H737.584C746.446 739 754.972 740.181 763.16 742.544C771.349 744.794 778.977 748.057 786.044 752.332C793.224 756.495 799.73 761.557 805.563 767.52C811.509 773.371 816.557 779.896 820.707 787.096C824.97 794.297 828.223 802.003 830.466 810.216C832.822 818.429 834 826.98 834 835.868C834 849.143 831.476 861.688 826.428 873.501C821.38 885.201 814.481 895.439 805.731 904.215C796.982 912.99 786.718 919.909 774.939 924.972C763.273 930.035 750.821 932.566 737.584 932.566H689.292V981Z" fill="white"/>
<path d="M571 981H519.343L426.292 821.692V981H378V739H429.657L522.708 898.477V739H571V981Z" fill="#51B497"/>
<path d="M308 981H115V739H308V787.434H171.349V835.868H260.095V884.301H171.349V932.566H308V981Z" fill="#51B497"/>
<path d="M1430 739H1481.66L1574.71 898.308V739H1623V981H1571.34L1478.29 821.523V981H1430V739Z" fill="#51B497"/>
<path d="M1693 739H1886V981H1693V932.566H1829.65V884.132H1740.91V835.699H1829.65V787.434H1693V739Z" fill="#51B497"/>
<path d="M1837.71 308.566V211.699H1789.42C1782.8 211.699 1776.57 212.936 1770.74 215.411C1764.91 217.999 1759.8 221.487 1755.43 225.874C1751.05 230.262 1747.63 235.381 1745.16 241.232C1742.58 247.194 1741.29 253.495 1741.29 260.132C1741.29 266.77 1742.58 273.014 1745.16 278.865C1747.63 284.828 1751.05 290.003 1755.43 294.391C1759.8 298.778 1764.91 302.21 1770.74 304.685C1776.57 307.272 1782.8 308.566 1789.42 308.566H1837.71ZM1837.71 115H1886V357H1789.42C1780.55 357 1772.03 355.819 1763.84 353.456C1755.65 351.206 1748.02 347.943 1740.96 343.668C1733.78 339.505 1727.27 334.443 1721.44 328.48C1715.49 322.629 1710.44 316.104 1706.29 308.904C1702.03 301.703 1698.78 293.997 1696.53 285.784C1694.18 277.571 1693 269.02 1693 260.132C1693 251.807 1694.07 243.707 1696.2 235.831C1698.22 227.956 1701.19 220.474 1705.12 213.386C1708.93 206.298 1713.64 199.773 1719.25 193.81C1724.86 187.848 1731.14 182.672 1738.1 178.285L1711.34 115H1762.66L1783.69 163.771L1837.71 163.434V115Z" fill="#51B497"/>
<path d="M308 328.241C297.445 337.501 285.676 344.636 272.693 349.647C259.71 354.549 246.2 357 232.162 357C221.395 357 210.999 355.529 200.971 352.588C191.049 349.756 181.761 345.725 173.106 340.496C164.451 335.158 156.534 328.84 149.357 321.542C142.179 314.134 136.057 305.964 130.991 297.031C125.925 287.989 121.966 278.294 119.116 267.945C116.372 257.596 115 246.866 115 235.755C115 224.643 116.372 213.968 119.116 203.728C121.966 193.488 125.925 183.902 130.991 174.969C136.057 165.927 142.179 157.757 149.357 150.458C156.534 143.051 164.451 136.733 173.106 131.504C181.761 126.275 191.049 122.244 200.971 119.412C210.999 116.471 221.395 115 232.162 115C246.2 115 259.71 117.506 272.693 122.517C285.676 127.419 297.445 134.499 308 143.759L284.251 184.61C277.39 177.42 269.474 171.81 260.502 167.779C251.53 163.64 242.083 161.57 232.162 161.57C222.24 161.57 212.899 163.531 204.138 167.452C195.483 171.374 187.883 176.712 181.339 183.466C174.795 190.111 169.623 197.954 165.823 206.996C162.023 215.929 160.123 225.515 160.123 235.755C160.123 246.104 162.023 255.799 165.823 264.841C169.623 273.882 174.795 281.78 181.339 288.534C187.883 295.288 195.483 300.626 204.138 304.548C212.899 308.469 222.24 310.43 232.162 310.43C237.861 310.43 243.403 309.722 248.786 308.306C254.169 306.89 259.288 304.929 264.144 302.423V235.755H308V328.241Z" fill="#51B497"/>
<path d="M596 235.918C596 247.015 594.531 257.73 591.594 268.065C588.766 278.292 584.74 287.919 579.519 296.949C574.297 305.869 567.987 314.029 560.589 321.426C553.192 328.824 545.033 335.188 536.112 340.519C527.191 345.74 517.563 349.766 507.229 352.594C496.894 355.531 486.178 357 475.082 357C463.985 357 453.269 355.531 442.935 352.594C432.708 349.766 423.081 345.74 414.051 340.519C405.131 335.188 396.971 328.824 389.574 321.426C382.176 314.029 375.812 305.869 370.481 296.949C365.26 287.919 361.18 278.292 358.243 268.065C355.414 257.73 354 247.015 354 235.918C354 224.822 355.414 214.106 358.243 203.771C361.18 193.437 365.26 183.809 370.481 174.888C375.812 165.967 382.176 157.808 389.574 150.411C396.971 143.013 405.131 136.703 414.051 131.481C423.081 126.26 432.708 122.234 442.935 119.406C453.269 116.469 463.985 115 475.082 115C486.178 115 496.894 116.469 507.229 119.406C517.563 122.234 527.191 126.26 536.112 131.481C545.033 136.703 553.192 143.013 560.589 150.411C567.987 157.808 574.297 165.967 579.519 174.888C584.74 183.809 588.766 193.437 591.594 203.771C594.531 214.106 596 224.822 596 235.918ZM549.493 235.918C549.493 225.692 547.535 216.065 543.618 207.035C539.702 197.897 534.371 190.01 527.626 183.374C520.99 176.629 513.103 171.298 503.965 167.382C494.935 163.465 485.308 161.507 475.082 161.507C464.747 161.507 455.065 163.465 446.035 167.382C437.006 171.298 429.118 176.629 422.374 183.374C415.629 190.01 410.298 197.897 406.382 207.035C402.465 216.065 400.507 225.692 400.507 235.918C400.507 246.145 402.465 255.772 406.382 264.802C410.298 273.722 415.629 281.555 422.374 288.3C429.118 295.045 437.006 300.376 446.035 304.292C455.065 308.208 464.747 310.167 475.082 310.167C485.308 310.167 494.935 308.208 503.965 304.292C513.103 300.376 520.99 295.045 527.626 288.3C534.371 281.555 539.702 273.722 543.618 264.802C547.535 255.772 549.493 246.145 549.493 235.918Z" fill="#51B497"/>
<path d="M689.292 163.434V260.301H737.584C744.203 260.301 750.428 259.064 756.262 256.589C762.095 254.001 767.199 250.513 771.574 246.126C775.949 241.738 779.37 236.619 781.838 230.768C784.418 224.806 785.708 218.505 785.708 211.868C785.708 205.23 784.418 198.986 781.838 193.135C779.37 187.172 775.949 181.997 771.574 177.609C767.199 173.222 762.095 169.79 756.262 167.315C750.428 164.728 744.203 163.434 737.584 163.434H689.292ZM689.292 357H641V115H737.584C746.446 115 754.972 116.181 763.16 118.544C771.349 120.794 778.977 124.057 786.044 128.332C793.224 132.495 799.73 137.557 805.563 143.52C811.509 149.371 816.557 155.896 820.707 163.096C824.97 170.297 828.223 178.003 830.466 186.216C832.822 194.429 834 202.98 834 211.868C834 225.143 831.476 237.688 826.428 249.501C821.38 261.201 814.481 271.439 805.731 280.215C796.982 288.99 786.718 295.909 774.939 300.972C763.273 306.035 750.821 308.566 737.584 308.566H689.292V357Z" fill="white"/>
<path d="M1097 284.434C1097 294.447 1095.09 303.841 1091.28 312.616C1087.46 321.392 1082.25 329.099 1075.63 335.736C1069.12 342.262 1061.5 347.437 1052.75 351.262C1044 355.087 1034.63 357 1024.65 357H904V115H1024.65C1034.63 115 1044 116.913 1052.75 120.738C1061.5 124.563 1069.12 129.795 1075.63 136.432C1082.25 142.958 1087.46 150.608 1091.28 159.384C1095.09 168.159 1097 177.553 1097 187.566C1097 192.066 1096.38 196.679 1095.15 201.404C1093.92 206.13 1092.18 210.686 1089.93 215.074C1087.69 219.462 1085 223.456 1081.86 227.056C1078.72 230.656 1075.24 233.637 1071.42 236C1075.35 238.138 1078.88 241.063 1082.02 244.775C1085.17 248.376 1087.86 252.37 1090.1 256.757C1092.34 261.145 1094.03 265.758 1095.15 270.596C1096.38 275.321 1097 279.934 1097 284.434ZM952.292 308.566H1024.65C1028.01 308.566 1031.15 307.947 1034.07 306.71C1036.99 305.472 1039.51 303.785 1041.64 301.647C1043.88 299.397 1045.62 296.809 1046.86 293.884C1048.09 290.959 1048.71 287.809 1048.71 284.434C1048.71 281.059 1048.09 277.908 1046.86 274.983C1045.62 272.058 1043.88 269.527 1041.64 267.389C1039.51 265.139 1036.99 263.395 1034.07 262.158C1031.15 260.92 1028.01 260.301 1024.65 260.301H952.292V308.566ZM952.292 211.868H1024.65C1028.01 211.868 1031.15 211.249 1034.07 210.011C1036.99 208.774 1039.51 207.086 1041.64 204.948C1043.88 202.698 1045.62 200.111 1046.86 197.185C1048.09 194.148 1048.71 190.941 1048.71 187.566C1048.71 184.191 1048.09 181.041 1046.86 178.116C1045.62 175.191 1043.88 172.659 1041.64 170.522C1039.51 168.271 1036.99 166.528 1034.07 165.29C1031.15 164.053 1028.01 163.434 1024.65 163.434H952.292V211.868Z" fill="#51B497"/>
<path d="M1311.71 308.566V211.699H1263.42C1256.8 211.699 1250.57 212.936 1244.74 215.411C1238.91 217.999 1233.8 221.487 1229.43 225.874C1225.05 230.262 1221.63 235.381 1219.16 241.232C1216.58 247.194 1215.29 253.495 1215.29 260.132C1215.29 266.77 1216.58 273.014 1219.16 278.865C1221.63 284.828 1225.05 290.003 1229.43 294.391C1233.8 298.778 1238.91 302.21 1244.74 304.685C1250.57 307.272 1256.8 308.566 1263.42 308.566H1311.71ZM1311.71 115H1360V357H1263.42C1254.55 357 1246.03 355.819 1237.84 353.456C1229.65 351.206 1222.02 347.943 1214.96 343.668C1207.78 339.505 1201.27 334.443 1195.44 328.48C1189.49 322.629 1184.44 316.104 1180.29 308.904C1176.03 301.703 1172.78 293.997 1170.53 285.784C1168.18 277.571 1167 269.02 1167 260.132C1167 251.807 1168.07 243.707 1170.2 235.831C1172.22 227.956 1175.19 220.474 1179.12 213.386C1182.93 206.298 1187.64 199.773 1193.25 193.81C1198.86 187.848 1205.14 182.672 1212.1 178.285L1185.34 115H1236.66L1257.69 163.771L1311.71 163.434V115Z" fill="white"/>
<path d="M1430 143.759C1440.56 134.499 1452.32 127.364 1465.31 122.353C1478.29 117.451 1491.8 115 1505.84 115C1516.6 115 1527 116.471 1537.03 119.412C1546.95 122.244 1556.24 126.275 1564.89 131.504C1573.55 136.842 1581.47 143.16 1588.64 150.458C1595.82 157.866 1601.94 166.036 1607.01 174.969C1612.08 184.011 1616.03 193.706 1618.88 204.055C1621.63 214.404 1623 225.134 1623 236.245C1623 247.357 1621.63 258.032 1618.88 268.272C1616.03 278.512 1612.08 288.098 1607.01 297.031C1601.94 306.073 1595.82 314.243 1588.64 321.542C1581.47 328.949 1573.55 335.267 1564.89 340.496C1556.24 345.725 1546.95 349.756 1537.03 352.588C1527 355.529 1516.6 357 1505.84 357C1491.8 357 1478.29 354.494 1465.31 349.483C1452.32 344.581 1440.56 337.501 1430 328.241L1453.75 287.39C1460.61 294.58 1468.53 300.19 1477.5 304.221C1486.47 308.36 1495.92 310.43 1505.84 310.43C1515.76 310.43 1525.1 308.469 1533.86 304.548C1542.52 300.626 1550.12 295.288 1556.66 288.534C1563.21 281.889 1568.38 274.046 1572.18 265.004C1575.98 256.071 1577.88 246.485 1577.88 236.245C1577.88 225.896 1575.98 216.201 1572.18 207.159C1568.38 198.118 1563.21 190.22 1556.66 183.466C1550.12 176.712 1542.52 171.374 1533.86 167.452C1525.1 163.531 1515.76 161.57 1505.84 161.57C1500.14 161.57 1494.6 162.278 1489.21 163.694C1483.83 165.11 1478.71 167.071 1473.86 169.577V236.245H1430V143.759Z" fill="#51B497"/>
<path d="M785.708 572.301V523.868C785.708 517.23 784.418 510.986 781.838 505.135C779.37 499.172 775.949 493.997 771.574 489.609C767.199 485.222 762.039 481.79 756.093 479.315C750.26 476.728 744.034 475.434 737.416 475.434C730.797 475.434 724.516 476.728 718.57 479.315C712.737 481.79 707.633 485.222 703.258 489.609C698.883 493.997 695.406 499.172 692.826 505.135C690.358 510.986 689.124 517.23 689.124 523.868V572.301H785.708ZM834 669H785.708V620.566H689.124V669H641V523.868C641 510.479 643.524 497.935 648.572 486.234C653.62 474.421 660.463 464.127 669.1 455.351C677.85 446.576 688.058 439.657 699.724 434.594C711.503 429.531 724.067 427 737.416 427C750.765 427 763.273 429.531 774.939 434.594C786.718 439.657 796.982 446.576 805.731 455.351C814.481 464.127 821.38 474.421 826.428 486.234C831.476 497.935 834 510.479 834 523.868V669Z" fill="white"/>
<path d="M1167 427H1360V669H1167V620.566H1303.65V572.132H1211.18V523.699H1303.65V475.434H1167V427Z" fill="white"/>
<path d="M426.292 669H378V427H426.292V523.868H522.708V427H571V669H522.708V572.301H426.292V669Z" fill="#51B497"/>
<path d="M1430 523.699C1430 510.311 1432.52 497.71 1437.57 485.897C1442.62 474.196 1449.52 463.958 1458.27 455.183C1467.02 446.52 1477.28 439.657 1489.06 434.594C1500.73 429.531 1513.24 427 1526.58 427C1539.93 427 1552.5 429.531 1564.28 434.594C1575.94 439.657 1586.15 446.52 1594.9 455.183C1603.54 463.958 1610.38 474.196 1615.43 485.897C1620.48 497.71 1623 510.311 1623 523.699V669H1574.88V523.699C1574.88 517.061 1573.64 510.817 1571.17 504.967C1568.59 499.116 1565.12 493.997 1560.74 489.609C1556.37 485.222 1551.26 481.734 1545.43 479.146C1539.48 476.671 1533.2 475.434 1526.58 475.434C1519.97 475.434 1513.74 476.671 1507.91 479.146C1501.96 481.734 1496.8 485.222 1492.43 489.609C1488.05 493.997 1484.63 499.116 1482.16 504.967C1479.58 510.817 1478.29 517.061 1478.29 523.699V669H1430V523.699Z" fill="#51B497"/>
<path d="M235.646 669H187.522V475.434H115V427H308V475.434H235.646V669Z" fill="#51B497"/>
<path d="M1693 499.566C1693 489.553 1694.91 480.159 1698.72 471.384C1702.54 462.608 1707.75 454.901 1714.37 448.264C1720.88 441.738 1728.5 436.563 1737.25 432.738C1746 428.913 1755.37 427 1765.35 427H1886V669H1765.35C1755.37 669 1746 667.087 1737.25 663.262C1728.5 659.437 1720.88 654.205 1714.37 647.568C1707.75 641.042 1702.54 633.392 1698.72 624.616C1694.91 615.841 1693 606.447 1693 596.434C1693 591.934 1693.62 587.321 1694.85 582.596C1696.08 577.87 1697.82 573.314 1700.07 568.926C1702.31 564.538 1705 560.544 1708.14 556.944C1711.28 553.344 1714.76 550.363 1718.58 548C1714.65 545.862 1711.12 542.937 1707.98 539.225C1704.83 535.624 1702.14 531.63 1699.9 527.243C1697.66 522.855 1695.97 518.242 1694.85 513.404C1693.62 508.679 1693 504.066 1693 499.566ZM1837.71 475.434H1765.35C1761.99 475.434 1758.85 476.053 1755.93 477.29C1753.01 478.528 1750.49 480.215 1748.36 482.353C1746.12 484.603 1744.38 487.191 1743.14 490.116C1741.91 493.041 1741.29 496.191 1741.29 499.566C1741.29 502.941 1741.91 506.092 1743.14 509.017C1744.38 511.942 1746.12 514.473 1748.36 516.611C1750.49 518.861 1753.01 520.605 1755.93 521.842C1758.85 523.08 1761.99 523.699 1765.35 523.699H1837.71V475.434ZM1837.71 572.132H1765.35C1761.99 572.132 1758.85 572.751 1755.93 573.989C1753.01 575.226 1750.49 576.914 1748.36 579.052C1746.12 581.302 1744.38 583.889 1743.14 586.815C1741.91 589.852 1741.29 593.059 1741.29 596.434C1741.29 599.809 1741.91 602.959 1743.14 605.884C1744.38 608.809 1746.12 611.341 1748.36 613.478C1750.49 615.729 1753.01 617.472 1755.93 618.71C1758.85 619.947 1761.99 620.566 1765.35 620.566H1837.71V572.132Z" fill="#51B497"/>
<path d="M834 1293H641V1051H834V1099.43H697.349V1147.87H789.824V1196.3H697.349V1244.57H834V1293Z" fill="white"/>
<path d="M1215.29 1147.7V1196.13C1215.29 1202.77 1216.58 1209.01 1219.16 1214.86C1221.63 1220.83 1225.05 1226 1229.43 1230.39C1233.8 1234.78 1238.96 1238.21 1244.91 1240.68C1250.74 1243.27 1256.97 1244.57 1263.58 1244.57C1270.2 1244.57 1276.48 1243.27 1282.43 1240.68C1288.26 1238.21 1293.37 1234.78 1297.74 1230.39C1302.12 1226 1305.59 1220.83 1308.17 1214.86C1310.64 1209.01 1311.88 1202.77 1311.88 1196.13V1147.7H1215.29ZM1167 1051H1215.29V1099.43H1311.88V1051H1360V1196.13C1360 1209.52 1357.48 1222.07 1352.43 1233.77C1347.38 1245.58 1340.54 1255.87 1331.9 1264.65C1323.15 1273.42 1312.94 1280.34 1301.28 1285.41C1289.5 1290.47 1276.93 1293 1263.58 1293C1250.24 1293 1237.73 1290.47 1226.06 1285.41C1214.28 1280.34 1204.02 1273.42 1195.27 1264.65C1186.52 1255.87 1179.62 1245.58 1174.57 1233.77C1169.52 1222.07 1167 1209.52 1167 1196.13V1051Z" fill="white"/>
<path d="M571 1196.3C571 1209.69 568.476 1222.29 563.428 1234.1C558.38 1245.8 551.481 1256.04 542.731 1264.82C533.982 1273.48 523.718 1280.34 511.939 1285.41C500.273 1290.47 487.765 1293 474.416 1293C461.067 1293 448.503 1290.47 436.724 1285.41C425.058 1280.34 414.85 1273.48 406.1 1264.82C397.463 1256.04 390.62 1245.8 385.572 1234.1C380.524 1222.29 378 1209.69 378 1196.3V1051H426.124V1196.3C426.124 1202.94 427.358 1209.18 429.826 1215.03C432.406 1220.88 435.883 1226 440.258 1230.39C444.633 1234.78 449.737 1238.27 455.57 1240.85C461.516 1243.33 467.797 1244.57 474.416 1244.57C481.034 1244.57 487.26 1243.33 493.093 1240.85C499.039 1238.27 504.199 1234.78 508.574 1230.39C512.949 1226 516.37 1220.88 518.838 1215.03C521.418 1209.18 522.708 1202.94 522.708 1196.3V1051H571V1196.3Z" fill="#51B497"/>
<path d="M1574.71 1051H1623V1293H1574.71V1196.13H1478.29V1293H1430V1051H1478.29V1147.7H1574.71V1051Z" fill="#51B497"/>
<path d="M308 1220.43C308 1230.45 306.093 1239.84 302.279 1248.62C298.465 1257.39 293.249 1265.1 286.63 1271.74C280.124 1278.26 272.496 1283.44 263.746 1287.26C254.997 1291.09 245.63 1293 235.646 1293H115V1051H235.646C245.63 1051 254.997 1052.91 263.746 1056.74C272.496 1060.56 280.124 1065.79 286.63 1072.43C293.249 1078.96 298.465 1086.61 302.279 1095.38C306.093 1104.16 308 1113.55 308 1123.57C308 1128.07 307.383 1132.68 306.149 1137.4C304.915 1142.13 303.176 1146.69 300.933 1151.07C298.689 1155.46 295.997 1159.46 292.856 1163.06C289.715 1166.66 286.238 1169.64 282.424 1172C286.35 1174.14 289.883 1177.06 293.024 1180.78C296.165 1184.38 298.858 1188.37 301.101 1192.76C303.345 1197.15 305.027 1201.76 306.149 1206.6C307.383 1211.32 308 1215.93 308 1220.43ZM163.292 1244.57H235.646C239.011 1244.57 242.152 1243.95 245.069 1242.71C247.985 1241.47 250.509 1239.78 252.641 1237.65C254.884 1235.4 256.623 1232.81 257.857 1229.88C259.091 1226.96 259.708 1223.81 259.708 1220.43C259.708 1217.06 259.091 1213.91 257.857 1210.98C256.623 1208.06 254.884 1205.53 252.641 1203.39C250.509 1201.14 247.985 1199.4 245.069 1198.16C242.152 1196.92 239.011 1196.3 235.646 1196.3H163.292V1244.57ZM163.292 1147.87H235.646C239.011 1147.87 242.152 1147.25 245.069 1146.01C247.985 1144.77 250.509 1143.09 252.641 1140.95C254.884 1138.7 256.623 1136.11 257.857 1133.19C259.091 1130.15 259.708 1126.94 259.708 1123.57C259.708 1120.19 259.091 1117.04 257.857 1114.12C256.623 1111.19 254.884 1108.66 252.641 1106.52C250.509 1104.27 247.985 1102.53 245.069 1101.29C242.152 1100.05 239.011 1099.43 235.646 1099.43H163.292V1147.87Z" fill="#51B497"/>
<path d="M1765.35 1051H1813.48V1244.57H1886V1293H1693V1244.57H1765.35V1051Z" fill="#51B497"/>
<path d="M689.292 1411.43V1508.3H737.584C744.203 1508.3 750.428 1507.06 756.262 1504.59C762.095 1502 767.199 1498.51 771.574 1494.13C775.949 1489.74 779.37 1484.62 781.838 1478.77C784.418 1472.81 785.708 1466.51 785.708 1459.87C785.708 1453.23 784.418 1446.99 781.838 1441.14C779.37 1435.17 775.949 1430 771.574 1425.61C767.199 1421.22 762.095 1417.79 756.262 1415.32C750.428 1412.73 744.203 1411.43 737.584 1411.43H689.292ZM689.292 1605H641V1363H737.584C746.446 1363 754.972 1364.18 763.16 1366.54C771.349 1368.79 778.977 1372.06 786.044 1376.33C793.224 1380.49 799.73 1385.56 805.563 1391.52C811.509 1397.37 816.557 1403.9 820.707 1411.1C824.97 1418.3 828.223 1426 830.466 1434.22C832.822 1442.43 834 1450.98 834 1459.87C834 1468.19 832.934 1476.29 830.803 1484.17C828.784 1492.04 825.811 1499.53 821.885 1506.61C818.071 1513.7 813.359 1520.23 807.751 1526.19C802.142 1532.15 795.86 1537.33 788.905 1541.72L815.659 1605H764.338L743.305 1556.23L689.292 1556.57V1605Z" fill="white"/>
<path d="M904 1435.57C904 1425.55 905.907 1416.16 909.721 1407.38C913.535 1398.61 918.751 1390.9 925.37 1384.26C931.876 1377.74 939.504 1372.56 948.254 1368.74C957.003 1364.91 966.37 1363 976.354 1363H1097V1605H976.354C966.37 1605 957.003 1603.09 948.254 1599.26C939.504 1595.44 931.876 1590.21 925.37 1583.57C918.751 1577.04 913.535 1569.39 909.721 1560.62C905.907 1551.84 904 1542.45 904 1532.43C904 1527.93 904.617 1523.32 905.851 1518.6C907.085 1513.87 908.824 1509.31 911.067 1504.93C913.311 1500.54 916.003 1496.54 919.144 1492.94C922.285 1489.34 925.762 1486.36 929.576 1484C925.65 1481.86 922.117 1478.94 918.976 1475.22C915.835 1471.62 913.142 1467.63 910.899 1463.24C908.655 1458.85 906.973 1454.24 905.851 1449.4C904.617 1444.68 904 1440.07 904 1435.57ZM1048.71 1411.43H976.354C972.989 1411.43 969.848 1412.05 966.931 1413.29C964.015 1414.53 961.491 1416.22 959.359 1418.35C957.116 1420.6 955.377 1423.19 954.143 1426.12C952.909 1429.04 952.292 1432.19 952.292 1435.57C952.292 1438.94 952.909 1442.09 954.143 1445.02C955.377 1447.94 957.116 1450.47 959.359 1452.61C961.491 1454.86 964.015 1456.6 966.931 1457.84C969.848 1459.08 972.989 1459.7 976.354 1459.7H1048.71V1411.43ZM1048.71 1508.13H976.354C972.989 1508.13 969.848 1508.75 966.931 1509.99C964.015 1511.23 961.491 1512.91 959.359 1515.05C957.116 1517.3 955.377 1519.89 954.143 1522.81C952.909 1525.85 952.292 1529.06 952.292 1532.43C952.292 1535.81 952.909 1538.96 954.143 1541.88C955.377 1544.81 957.116 1547.34 959.359 1549.48C961.491 1551.73 964.015 1553.47 966.931 1554.71C969.848 1555.95 972.989 1556.57 976.354 1556.57H1048.71V1508.13Z" fill="#51B497"/>
<path d="M1311.71 1556.57V1459.7H1263.42C1256.8 1459.7 1250.57 1460.94 1244.74 1463.41C1238.91 1466 1233.8 1469.49 1229.43 1473.87C1225.05 1478.26 1221.63 1483.38 1219.16 1489.23C1216.58 1495.19 1215.29 1501.49 1215.29 1508.13C1215.29 1514.77 1216.58 1521.01 1219.16 1526.86C1221.63 1532.83 1225.05 1538 1229.43 1542.39C1233.8 1546.78 1238.91 1550.21 1244.74 1552.68C1250.57 1555.27 1256.8 1556.57 1263.42 1556.57H1311.71ZM1311.71 1363H1360V1605H1263.42C1254.55 1605 1246.03 1603.82 1237.84 1601.46C1229.65 1599.21 1222.02 1595.94 1214.96 1591.67C1207.78 1587.51 1201.27 1582.44 1195.44 1576.48C1189.49 1570.63 1184.44 1564.1 1180.29 1556.9C1176.03 1549.7 1172.78 1542 1170.53 1533.78C1168.18 1525.57 1167 1517.02 1167 1508.13C1167 1494.86 1169.52 1482.31 1174.57 1470.5C1179.62 1458.8 1186.52 1448.56 1195.27 1439.79C1204.02 1431.01 1214.28 1424.09 1226.06 1419.03C1237.73 1413.97 1250.18 1411.43 1263.42 1411.43H1311.71V1363Z" fill="white"/>
<path d="M571 1576.24C560.445 1585.5 548.676 1592.64 535.693 1597.65C522.71 1602.55 509.2 1605 495.162 1605C484.395 1605 473.999 1603.53 463.971 1600.59C454.049 1597.76 444.761 1593.73 436.106 1588.5C427.451 1583.16 419.534 1576.84 412.357 1569.54C405.179 1562.13 399.057 1553.96 393.991 1545.03C388.925 1535.99 384.966 1526.29 382.116 1515.95C379.372 1505.6 378 1494.87 378 1483.75C378 1472.64 379.372 1461.97 382.116 1451.73C384.966 1441.49 388.925 1431.9 393.991 1422.97C399.057 1413.93 405.179 1405.76 412.357 1398.46C419.534 1391.05 427.451 1384.73 436.106 1379.5C444.761 1374.27 454.049 1370.24 463.971 1367.41C473.999 1364.47 484.395 1363 495.162 1363C509.2 1363 522.71 1365.51 535.693 1370.52C548.676 1375.42 560.445 1382.5 571 1391.76L547.251 1432.61C540.39 1425.42 532.474 1419.81 523.502 1415.78C514.53 1411.64 505.083 1409.57 495.162 1409.57C485.24 1409.57 475.899 1411.53 467.138 1415.45C458.483 1419.37 450.883 1424.71 444.339 1431.47C437.795 1438.11 432.623 1445.95 428.823 1455C425.023 1463.93 423.123 1473.51 423.123 1483.75C423.123 1494.1 425.023 1503.8 428.823 1512.84C432.623 1521.88 437.795 1529.78 444.339 1536.53C450.883 1543.29 458.483 1548.63 467.138 1552.55C475.899 1556.47 485.24 1558.43 495.162 1558.43C500.861 1558.43 506.403 1557.72 511.786 1556.31C517.169 1554.89 522.288 1552.93 527.144 1550.42V1483.75H571V1576.24Z" fill="#51B497"/>
<path d="M1406 1484.08C1406 1472.99 1407.47 1462.27 1410.41 1451.93C1413.23 1441.71 1417.26 1432.08 1422.48 1423.05C1427.7 1414.13 1434.01 1405.97 1441.41 1398.57C1448.81 1391.18 1456.97 1384.81 1465.89 1379.48C1474.81 1374.26 1484.44 1370.23 1494.77 1367.41C1505.11 1364.47 1515.82 1363 1526.92 1363C1538.01 1363 1548.73 1364.47 1559.07 1367.41C1569.29 1370.23 1578.92 1374.26 1587.95 1379.48C1596.87 1384.81 1605.03 1391.18 1612.43 1398.57C1619.82 1405.97 1626.19 1414.13 1631.52 1423.05C1636.74 1432.08 1640.82 1441.71 1643.76 1451.93C1646.59 1462.27 1648 1472.99 1648 1484.08C1648 1495.18 1646.59 1505.89 1643.76 1516.23C1640.82 1526.56 1636.74 1536.19 1631.52 1545.11C1626.19 1554.03 1619.82 1562.19 1612.43 1569.59C1605.03 1576.99 1596.87 1583.3 1587.95 1588.52C1578.92 1593.74 1569.29 1597.77 1559.07 1600.59C1548.73 1603.53 1538.01 1605 1526.92 1605C1515.82 1605 1505.11 1603.53 1494.77 1600.59C1484.44 1597.77 1474.81 1593.74 1465.89 1588.52C1456.97 1583.3 1448.81 1576.99 1441.41 1569.59C1434.01 1562.19 1427.7 1554.03 1422.48 1545.11C1417.26 1536.19 1413.23 1526.56 1410.41 1516.23C1407.47 1505.89 1406 1495.18 1406 1484.08ZM1452.51 1484.08C1452.51 1494.31 1454.47 1503.94 1458.38 1512.96C1462.3 1522.1 1467.63 1529.99 1474.37 1536.63C1481.01 1543.37 1488.9 1548.7 1498.04 1552.62C1507.06 1556.53 1516.69 1558.49 1526.92 1558.49C1537.25 1558.49 1546.94 1556.53 1555.96 1552.62C1564.99 1548.7 1572.88 1543.37 1579.63 1536.63C1586.37 1529.99 1591.7 1522.1 1595.62 1512.96C1599.53 1503.94 1601.49 1494.31 1601.49 1484.08C1601.49 1473.86 1599.53 1464.23 1595.62 1455.2C1591.7 1446.28 1586.37 1438.44 1579.63 1431.7C1572.88 1424.96 1564.99 1419.62 1555.96 1415.71C1546.94 1411.79 1537.25 1409.83 1526.92 1409.83C1516.69 1409.83 1507.06 1411.79 1498.04 1415.71C1488.9 1419.62 1481.01 1424.96 1474.37 1431.7C1467.63 1438.44 1462.3 1446.28 1458.38 1455.2C1454.47 1464.23 1452.51 1473.86 1452.51 1484.08Z" fill="#51B497"/>
<path d="M163.292 1411.43V1508.3H211.584C218.203 1508.3 224.428 1507.06 230.262 1504.59C236.095 1502 241.199 1498.51 245.574 1494.13C249.949 1489.74 253.37 1484.62 255.838 1478.77C258.418 1472.81 259.708 1466.51 259.708 1459.87C259.708 1453.23 258.418 1446.99 255.838 1441.14C253.37 1435.17 249.949 1430 245.574 1425.61C241.199 1421.22 236.095 1417.79 230.262 1415.32C224.428 1412.73 218.203 1411.43 211.584 1411.43H163.292ZM163.292 1605H115V1363H211.584C220.446 1363 228.972 1364.18 237.16 1366.54C245.349 1368.79 252.977 1372.06 260.044 1376.33C267.224 1380.49 273.73 1385.56 279.563 1391.52C285.509 1397.37 290.557 1403.9 294.707 1411.1C298.97 1418.3 302.223 1426 304.466 1434.22C306.822 1442.43 308 1450.98 308 1459.87C308 1468.19 306.934 1476.29 304.803 1484.17C302.784 1492.04 299.811 1499.53 295.885 1506.61C292.071 1513.7 287.359 1520.23 281.751 1526.19C276.142 1532.15 269.86 1537.33 262.905 1541.72L289.659 1605H238.338L217.305 1556.23L163.292 1556.57V1605Z" fill="#51B497"/>
<path d="M1693 1391.76C1703.56 1382.5 1715.32 1375.36 1728.31 1370.35C1741.29 1365.45 1754.8 1363 1768.84 1363C1779.6 1363 1790 1364.47 1800.03 1367.41C1809.95 1370.24 1819.24 1374.27 1827.89 1379.5C1836.55 1384.84 1844.47 1391.16 1851.64 1398.46C1858.82 1405.87 1864.94 1414.04 1870.01 1422.97C1875.08 1432.01 1879.03 1441.71 1881.88 1452.05C1884.63 1462.4 1886 1473.13 1886 1484.25C1886 1495.36 1884.63 1506.03 1881.88 1516.27C1879.03 1526.51 1875.08 1536.1 1870.01 1545.03C1864.94 1554.07 1858.82 1562.24 1851.64 1569.54C1844.47 1576.95 1836.55 1583.27 1827.89 1588.5C1819.24 1593.73 1809.95 1597.76 1800.03 1600.59C1790 1603.53 1779.6 1605 1768.84 1605C1754.8 1605 1741.29 1602.49 1728.31 1597.48C1715.32 1592.58 1703.56 1585.5 1693 1576.24L1716.75 1535.39C1723.61 1542.58 1731.53 1548.19 1740.5 1552.22C1749.47 1556.36 1758.92 1558.43 1768.84 1558.43C1778.76 1558.43 1788.1 1556.47 1796.86 1552.55C1805.52 1548.63 1813.12 1543.29 1819.66 1536.53C1826.21 1529.89 1831.38 1522.05 1835.18 1513C1838.98 1504.07 1840.88 1494.49 1840.88 1484.25C1840.88 1473.9 1838.98 1464.2 1835.18 1455.16C1831.38 1446.12 1826.21 1438.22 1819.66 1431.47C1813.12 1424.71 1805.52 1419.37 1796.86 1415.45C1788.1 1411.53 1778.76 1409.57 1768.84 1409.57C1763.14 1409.57 1757.6 1410.28 1752.21 1411.69C1746.83 1413.11 1741.71 1415.07 1736.86 1417.58V1484.25H1693V1391.76Z" fill="#51B497"/>
<path d="M1092.24 763C1101.5 773.555 1108.64 785.324 1113.65 798.307C1118.55 811.29 1121 824.8 1121 838.838C1121 849.605 1119.53 860.001 1116.59 870.029C1113.76 879.951 1109.73 889.239 1104.5 897.894C1099.16 906.549 1092.84 914.466 1085.54 921.643C1078.13 928.821 1069.96 934.943 1061.03 940.009C1051.99 945.075 1042.29 949.034 1031.95 951.884C1021.6 954.628 1010.87 956 999.755 956C988.643 956 977.968 954.628 967.728 951.884C957.488 949.034 947.902 945.075 938.969 940.009C929.927 934.943 921.757 928.821 914.458 921.643C907.051 914.466 900.733 906.549 895.504 897.894C890.275 889.239 886.244 879.951 883.412 870.029C880.471 860.001 879 849.605 879 838.838C879 824.8 881.506 811.29 886.517 798.307C891.419 785.324 898.499 773.555 907.759 763L948.61 786.749C941.42 793.61 935.81 801.526 931.779 810.498C927.64 819.47 925.57 828.917 925.57 838.838C925.57 848.76 927.531 858.101 931.452 866.862C935.374 875.517 940.712 883.117 947.466 889.661C954.111 896.205 961.954 901.377 970.996 905.177C979.929 908.977 989.515 910.877 999.755 910.877C1010.1 910.877 1019.8 908.977 1028.84 905.177C1037.88 901.377 1045.78 896.205 1052.53 889.661C1059.29 883.117 1064.63 875.517 1068.55 866.862C1072.47 858.101 1074.43 848.76 1074.43 838.838C1074.43 833.139 1073.72 827.597 1072.31 822.214C1070.89 816.831 1068.93 811.712 1066.42 806.856H999.755V763H1092.24Z" fill="#51B497"/>
</svg>
