<svg width="700" height="700" viewBox="0 0 700 700" fill="none" xmlns="http://www.w3.org/2000/svg">
<path d="M304 655.132C406.137 655.132 487 608.632 537.248 543.632V649.132L568.995 594.132C568.995 558.753 568.691 559.251 568.995 521.732C569.305 483.554 569.617 445.04 569.617 407.762C569.617 407.762 569.625 374.885 569.617 353.819C569.601 313.543 569.5 249.077 569.5 249.077H537.248C537.248 249.077 537.393 313.542 537.248 353.819C537.109 392.287 537.248 467.132 537.248 467.132C498.68 565.902 375.294 632.235 273.668 622.998V410.132L304 356.988V250.687H344.711V239.632H304V202.632C319.039 202.632 345.102 202.632 360.141 202.632V190.984C339.5 190.984 294.641 191.043 274 190.984L273.668 79.0238C360.141 65.6321 436.463 93.5786 493 154.632L516 129.632C468.5 74.6321 380.483 45.4744 328.318 44.1321C134 39.1321 3.6709e-05 176.632 0 356.896C0 447.418 43.6212 520.632 90.5 566.132C128 602.529 201.863 655.132 304 655.132Z" fill="#FFF3EC"/>
<path fill-rule="evenodd" clip-rule="evenodd" d="M446.715 339.132C446.715 339.132 444.869 341.821 441.215 344.632C428.215 354.632 420.329 356.988 402.426 356.988C386.345 356.988 372.803 352.137 361.801 342.437C350.408 332.346 344.711 319.585 344.711 304.155C344.711 288.4 349.854 275.445 360.141 265.288C371.013 254.481 385.466 249.077 403.5 249.077C417.953 249.077 430.095 253.472 439.926 262.261C450.538 271.701 455.844 284.103 455.844 299.468C455.844 301.682 455.779 304.025 455.648 306.499H391.195V348.394C395.622 349.305 400.603 349.761 406.137 349.761C411.413 349.761 419.125 348.729 425.715 345.632C434.808 341.358 442.215 334.632 442.215 334.632L446.715 339.132ZM419.215 258.132C414.955 256.997 409.229 256.206 403.891 256.206C398.552 256.206 394.32 256.564 391.195 257.281V299.37H418.246L449.715 299.468C448.715 274.132 434.715 262.261 419.215 258.132Z" fill="#FFF3EC"/>
<path d="M480.648 190.984V355.132H512.5V247.132L480.648 190.984Z" fill="#FFF3EC"/>
<path d="M618 308.132C613.344 313.843 582.5 355.132 582.5 355.132L591 355.132C591 355.132 613.498 325.2 621.5 315.132L654 371.632H699.5L651 288.132C660.396 276.178 670.5 261.632 680 249.132L671 249.273C662 261.132 655.5 270.132 647 281.132L628.5 249.132L582.871 249.273L618 308.132Z" fill="#FFF3EC"/>
<path d="M578 201C578 214.807 566.807 226 553 226C539.193 226 528 214.807 528 201C528 187.193 539.193 176 553 176C566.807 176 578 187.193 578 201Z" fill="#FFF3EC"/>
</svg>
