<svg width="700" height="700" viewBox="0 0 700 700" fill="none" xmlns="http://www.w3.org/2000/svg">
<path d="M304 655.132C406.137 655.132 487 608.632 537.248 543.632V649.132L568.995 594.132C568.995 558.753 568.691 559.251 568.995 521.732C569.305 483.554 569.617 445.04 569.617 407.762C569.617 407.762 569.625 374.885 569.617 353.819C569.601 313.543 569.5 249.077 569.5 249.077H537.248C537.248 249.077 537.393 313.542 537.248 353.819C537.109 392.287 537.248 467.132 537.248 467.132C498.68 565.902 375.294 632.235 273.668 622.998C273.668 437.233 273.668 263.711 273.668 79.0238C360.141 65.6321 436.463 93.5786 493 154.632L516 129.632C468.5 74.6321 380.483 45.4744 328.318 44.1321C134 39.1321 3.6709e-05 176.632 0 356.896C0 447.418 43.6212 520.632 90.5 566.132C128 602.529 201.863 655.132 304 655.132Z" fill="#271C19"/>
</svg>
