<svg width="1768" height="612" viewBox="0 0 1768 612" fill="none" xmlns="http://www.w3.org/2000/svg">
<path d="M620.277 465.91C597.426 465.91 586 454.745 586 432.414V359.758H627.797V455.363C628.448 455.689 629.262 455.852 630.238 455.852H633.461C638.669 455.852 644.854 452.336 652.016 445.305C654.164 443.156 661.112 435.539 663 433L664.5 359.758H700.062V464.055H663V442.5C652.016 455.852 634.861 465.91 620.277 465.91Z" fill="#FFF3EC"/>
<path d="M816.5 368.84C812.169 366.068 798.361 367.844 793.129 370.207C791.111 371.053 788.995 372.258 786.781 373.82C782.159 377.141 777.895 381.568 773.988 387.102V464.055H731.996V359.758H773.988V376.457C785.121 364.152 797.719 358 811.781 358C834.763 358 846.254 369.133 846.254 391.398V464.055H816.5V368.84Z" fill="#FFF3EC"/>
<path d="M1089.91 457.609C1081.57 463.143 1072.33 465.91 1062.17 465.91C1048.7 465.91 1037.89 462.525 1029.75 455.754C1021.29 448.788 1017.05 439.12 1017.05 426.75C1017.05 415.812 1021.25 406.828 1029.65 399.797C1038.25 392.701 1049.54 389.152 1063.54 389.152C1072.91 389.152 1081.7 390.943 1089.91 394.523V367.668C1083.98 365.975 1078.74 365.129 1074.18 365.129C1069.69 365.129 1065.88 365.324 1062.76 365.715C1059.63 366.105 1056.67 366.691 1053.87 367.473C1047.82 369.165 1040.1 374.309 1040.1 374.309L1032.88 368.449C1032.88 368.449 1038.08 365.064 1042.64 363.371C1052.08 359.79 1061.55 358 1071.06 358C1099.96 358 1113.99 363.046 1122 376.848C1125.52 382.967 1126.43 392.18 1126.43 402.141V464.055H1089.91V457.609ZM1089.91 402.141C1082 397.5 1073.53 396.184 1065.39 396.184C1064.09 396.184 1062.86 396.281 1061.68 396.477V458.586C1062.01 458.651 1062.37 458.684 1062.76 458.684C1063.15 458.684 1063.54 458.684 1063.93 458.684C1072.85 458.684 1081.51 455.526 1089.91 449.211C1102.5 435.5 1101.5 411 1089.91 402.141Z" fill="#FFF3EC"/>
<path d="M1162.27 359.758H1204.26V390.422C1208.75 379.289 1213.57 371.118 1218.71 365.91C1223.92 360.637 1229.13 358 1234.34 358C1237.27 358 1239.58 358.781 1241.27 360.344C1243.03 361.841 1243.91 363.534 1243.91 365.422C1243.91 367.31 1243.65 368.807 1243.13 369.914C1242.61 371.021 1241.92 371.965 1241.08 372.746C1239.32 374.374 1237.66 375.188 1236.1 375.188C1233.62 375.188 1231.8 374.927 1230.63 374.406C1228.61 373.495 1226.82 373.039 1225.26 373.039C1223.7 373.039 1221.71 374.309 1219.3 376.848C1216.89 379.322 1214.58 382.772 1212.37 387.199C1206.96 398.007 1204.26 409.725 1204.26 422.355V464.055H1162.27V359.758Z" fill="#FFF3EC"/>
<path d="M1248.13 452.555L1252.7 447.062C1252.7 447.062 1264.13 458.555 1286.29 459.172C1294.5 459.172 1299.77 457.479 1302.11 454.094C1302.76 453.182 1303.09 452.271 1303.09 451.359C1303.09 450.383 1302.89 449.471 1302.5 448.625C1302.18 447.714 1301.43 446.639 1300.26 445.402C1299.09 444.1 1297.43 442.57 1295.28 440.812L1286.68 433.879C1272.49 422.811 1262.76 413.827 1257.48 406.926C1252.67 400.611 1250.26 394.165 1250.26 387.59C1250.26 379.322 1254.07 372.388 1261.68 366.789C1269.56 360.93 1279.75 358 1292.25 358C1301.04 358 1308.05 359.536 1313.13 361.555C1318.21 363.573 1323.79 366.594 1323.79 366.594L1320.18 373.039C1315.4 369.764 1310.86 367.493 1305.14 366.105C1300.84 365.064 1296.84 364.543 1293.13 364.543C1289.42 364.543 1286.78 365.129 1285.22 366.301C1283.72 367.473 1282.97 368.645 1282.97 369.816C1282.97 370.923 1283.2 371.997 1283.66 373.039C1284.11 374.016 1284.96 375.188 1286.2 376.555C1289.06 379.94 1293.65 383.944 1299.96 388.566C1306.28 393.189 1311.62 397.421 1315.98 401.262C1320.34 405.103 1323.76 408.651 1326.23 411.906C1330.73 417.766 1332.97 423.69 1332.97 429.68C1332.97 435.669 1331.87 440.812 1329.65 445.109C1327.44 449.341 1324.28 452.987 1320.18 456.047C1311.52 462.622 1299.96 465.91 1285.51 465.91C1273.92 465.91 1265.23 462.982 1257.48 458.555C1252.47 455.755 1248.13 452.555 1248.13 452.555Z" fill="#FFF3EC"/>
<path d="M1348.99 450.969L1355.43 448.039C1364.13 456.038 1374.51 459.172 1386.29 459.172C1394.5 459.172 1399.77 457.479 1402.11 454.094C1402.76 453.182 1403.09 452.271 1403.09 451.359C1403.09 450.383 1402.89 449.471 1402.5 448.625C1402.18 447.714 1401.43 446.639 1400.26 445.402C1399.09 444.1 1397.43 442.57 1395.28 440.812L1386.68 433.879C1372.49 422.811 1362.76 413.827 1357.48 406.926C1352.67 400.611 1350.26 394.165 1350.26 387.59C1350.26 379.322 1354.07 372.388 1361.68 366.789C1369.56 360.93 1379.75 358 1392.25 358C1401.04 358 1407.55 359.536 1412.63 361.555C1417.71 363.573 1423.79 366.594 1423.79 366.594L1420.63 373.234C1420.63 373.234 1411.06 367.54 1405.14 366.105C1400.84 365.064 1396.84 364.543 1393.13 364.543C1389.42 364.543 1386.78 365.129 1385.22 366.301C1383.72 367.473 1382.97 368.645 1382.97 369.816C1382.97 370.923 1383.2 371.997 1383.66 373.039C1384.11 374.016 1384.96 375.188 1386.2 376.555C1389.06 379.94 1393.65 383.944 1399.96 388.566C1406.28 393.189 1411.62 397.421 1415.98 401.262C1420.34 405.103 1423.76 408.651 1426.23 411.906C1430.73 417.766 1432.97 423.69 1432.97 429.68C1432.97 435.669 1431.87 440.812 1429.65 445.109C1427.44 449.341 1424.28 452.987 1420.18 456.047C1411.52 462.622 1399.96 465.91 1385.51 465.91C1373.32 465.91 1357.13 462.555 1348.99 450.969Z" fill="#FFF3EC"/>
<path d="M1447.62 411.32C1447.62 403.508 1449.02 396.411 1451.82 390.031C1454.68 383.586 1458.59 377.987 1463.54 373.234C1474.22 363.078 1487.63 358 1503.77 358C1520.24 358 1533.66 363.273 1544.01 373.82C1553.9 383.781 1558.85 396.379 1558.85 411.613C1558.85 426.913 1553.77 439.706 1543.62 449.992C1533.14 460.604 1519.72 465.91 1503.38 465.91C1487.43 465.91 1474.22 460.865 1463.73 450.773C1452.99 440.357 1447.62 427.206 1447.62 411.32ZM1500.65 458.586C1501.17 458.651 1501.69 458.684 1502.21 458.684H1503.58C1516.73 458.684 1527.76 454.615 1536.68 446.477C1546.19 437.688 1550.94 426.164 1550.94 411.906C1550.94 397.974 1546.48 386.678 1537.56 378.02C1528.77 369.426 1517.41 365.129 1503.48 365.129H1502.02C1501.56 365.129 1501.1 365.161 1500.65 365.227V458.586Z" fill="#FFF3EC"/>
<path d="M956.246 368.84C951.915 366.068 938.107 367.844 932.875 370.207C930.857 371.053 928.741 372.258 926.527 373.82C921.905 377.141 917.641 381.568 913.734 387.102V464.055H871.742V359.758H913.734V376.457C924.867 364.152 937.465 358 951.527 358C974.509 358 986 369.133 986 391.398V464.055H956.246V368.84Z" fill="#FFF3EC"/>
<path d="M1664.5 370.598C1660.17 367.826 1646.36 369.602 1641.13 371.965C1639.11 372.811 1637 374.016 1634.79 375.578C1630.16 378.898 1625.9 383.326 1621.99 388.859V465.812H1580V361.516H1621.99V378.215C1633.12 365.91 1645.72 359.758 1659.79 359.758C1682.77 359.758 1694.26 370.891 1694.26 393.156V465.812H1664.5V370.598Z" fill="#FFF3EC"/>
<path d="M304 611.132C406.137 611.132 487 564.632 537.248 499.632V605.132L568.995 550.132C568.995 514.753 568.691 515.251 568.995 477.732C569.305 439.554 569.617 401.04 569.617 363.762C569.617 363.762 569.625 330.885 569.617 309.819C569.601 269.543 569.5 205.077 569.5 205.077H537.248C537.248 205.077 537.393 269.542 537.248 309.819C537.109 348.287 537.248 423.132 537.248 423.132C498.68 521.902 375.294 588.235 273.668 578.998V366.132L304 312.988V206.687H344.711V195.632H304V158.632C319.039 158.632 345.102 158.632 360.141 158.632V146.984C339.5 146.984 294.641 147.043 274 146.984L273.668 35.0238C360.141 21.6321 436.463 49.5786 493 110.632L516 85.6321C468.5 30.6321 380.483 1.47439 328.318 0.132125C134 -4.86792 3.6709e-05 132.632 0 312.896C0 403.418 43.6212 476.632 90.5 522.132C128 558.529 201.863 611.132 304 611.132Z" fill="#FFF3EC"/>
<path fill-rule="evenodd" clip-rule="evenodd" d="M446.715 295.132C446.715 295.132 444.869 297.821 441.215 300.632C428.215 310.632 420.329 312.988 402.426 312.988C386.345 312.988 372.803 308.137 361.801 298.437C350.408 288.346 344.711 275.585 344.711 260.155C344.711 244.4 349.854 231.445 360.141 221.288C371.013 210.481 385.466 205.077 403.5 205.077C417.953 205.077 430.095 209.472 439.926 218.261C450.538 227.701 455.844 240.103 455.844 255.468C455.844 257.682 455.779 260.025 455.648 262.499H391.195V304.394C395.622 305.305 400.603 305.761 406.137 305.761C411.413 305.761 419.125 304.729 425.715 301.632C434.808 297.358 442.215 290.632 442.215 290.632L446.715 295.132ZM419.215 214.132C414.955 212.997 409.229 212.206 403.891 212.206C398.552 212.206 394.32 212.564 391.195 213.281V255.37H418.246L449.715 255.468C448.715 230.132 434.715 218.261 419.215 214.132Z" fill="#FFF3EC"/>
<path d="M480.648 146.984V311.132H512.5V203.132L480.648 146.984Z" fill="#FFF3EC"/>
<path d="M618 264.132C613.344 269.843 582.5 311.132 582.5 311.132L591 311.132C591 311.132 613.498 281.2 621.5 271.132L654 327.632H699.5L651 244.132C660.396 232.178 670.5 217.632 680 205.132L671 205.273C662 217.132 655.5 226.132 647 237.132L628.5 205.132L582.871 205.273L618 264.132Z" fill="#FFF3EC"/>
<path d="M578 157C578 170.807 566.807 182 553 182C539.193 182 528 170.807 528 157C528 143.193 539.193 132 553 132C566.807 132 578 143.193 578 157Z" fill="#FFF3EC"/>
<path d="M1768 441C1768 454.807 1756.81 466 1743 466C1729.19 466 1718 454.807 1718 441C1718 427.193 1729.19 416 1743 416C1756.81 416 1768 427.193 1768 441Z" fill="#FFF3EC"/>
</svg>
